<?xml version="1.0" standalone="no"?><!DOCTYPE svg PUBLIC "-//W3C//DTD SVG 1.1//EN" "http://www.w3.org/Graphics/SVG/1.1/DTD/svg11.dtd"><svg t="1626082839703" class="icon" viewBox="0 0 1029 1024" version="1.1" xmlns="http://www.w3.org/2000/svg" p-id="4706" xmlns:xlink="http://www.w3.org/1999/xlink" width="1rem" height="1rem"><defs><style type="text/css"></style></defs><path d="M84.917488 1017.691102a84.422555 84.422555 0 0 1-59.940014-24.48254 84.422555 84.422555 0 0 1 0-119.880028L389.68291 511.155774 31.731279 148.138789A84.422555 84.422555 0 1 1 151.611306 29.947213L507.030261 389.587296 869.203021 29.102987a84.422555 84.422555 0 1 1 119.880028 119.880028L627.754515 511.155774l361.328534 364.705437a84.422555 84.422555 0 1 1-119.880028 118.191576L507.030261 629.347351l-362.172759 363.861211A84.422555 84.422555 0 0 1 84.917488 1017.691102z" fill="#515250" p-id="4707"></path></svg>