<?xml version="1.0" standalone="no"?><!DOCTYPE svg PUBLIC "-//W3C//DTD SVG 1.1//EN" "http://www.w3.org/Graphics/SVG/1.1/DTD/svg11.dtd"><svg t="1625193401229" class="icon" viewBox="0 0 1024 1024" version="1.1" xmlns="http://www.w3.org/2000/svg" p-id="6198" xmlns:xlink="http://www.w3.org/1999/xlink" width="1rem" height="1rem"><defs><style type="text/css"></style></defs><path d="M511.888971 131.844817c-201.852264 0-365.489158 163.635871-365.489158 365.490182 0 201.853287 163.636894 365.489158 365.489158 365.489158 201.853287 0 365.489158-163.635871 365.489158-365.489158C877.37813 295.480688 713.742259 131.844817 511.888971 131.844817zM456.024639 626.718765c-0.568958 0.584308-2.87549 2.919493-6.305613 3.502777-0.567935 0-0.567935 0-1.150196 0.582261l-90.506317 28.616758c-2.293229 0.581238-5.16258 0.581238-6.880711-1.172709-1.718131-1.747807-2.287089-4.084015-1.150196-7.013741L378.67804 560.744167c0-0.576121 0-0.576121 0.568958-1.163499 0.575098-2.927679 2.868327-6.421246 4.00522-7.013741l33.233915-30.936593 0.693802-0.462534L556.279994 380.355751 629.040135 452.744431 456.024639 626.718765zM667.422304 414.805354l-26.359344 26.270317-72.184019-72.970942 26.359344-26.270317c8.010441-8.170077 20.621667-9.342786 27.489074-2.340301l47.550992 47.292096C676.590104 393.783575 675.439908 406.629137 667.422304 414.805354z" p-id="6199" fill="#ffffff"></path><path d="M376.959909 613.886505 395.863445 633.150244 433.683818 620.87978 388.988874 575.933101Z" p-id="6200" fill="#ffffff"></path><path d="M544.818965 408.962276l-135.782499 135.445832c-2.862187 2.329045-2.862187 7.002484 0 9.339716 2.293229 2.329045 6.880711 2.329045 9.166777 0l135.207401-135.439692c2.869351-2.339278 2.869351-6.424316 0.576121-9.345856C551.693536 406.635277 547.106054 406.635277 544.818965 408.962276z" p-id="6201" fill="#ffffff"></path></svg>