<?xml version="1.0" standalone="no"?><!DOCTYPE svg PUBLIC "-//W3C//DTD SVG 1.1//EN" "http://www.w3.org/Graphics/SVG/1.1/DTD/svg11.dtd"><svg t="1629273859384" class="icon" viewBox="0 0 1024 1024" version="1.1" xmlns="http://www.w3.org/2000/svg" p-id="2297" xmlns:xlink="http://www.w3.org/1999/xlink" width="1rem" height="1rem"><defs><style type="text/css"></style></defs><path d="M512 936.96c-196.4544 0-356.3008-159.8464-356.3008-356.3008 0-105.8304 37.8368-201.6768 103.7312-262.912C419.0208 169.5744 419.84 153.6 431.6672 133.4784c1.4336-2.4576 8.9088-20.9408 13.5168-32.3584 1.6896-4.2496 7.2192-5.376 10.496-2.1504l14.4896 14.4896c36.352 36.352 78.6432 125.2864 78.4384 227.1232 0 5.5296 6.6048 8.5504 10.7008 4.7616 62.464-58.0608 78.3872-149.5552 78.5408-150.6816l3.6352-22.016c0.768-4.6592 6.144-6.912 9.984-4.1984l18.2784 12.6976c8.2432 5.7344 201.5744 143.4112 198.6048 399.4624-0.1024 196.608-159.8976 356.352-356.352 356.352zM466.6368 177.5616c-2.304-4.096-8.192-4.352-10.8544-0.4608-16.896 24.9344-56.2688 66.4576-168.4992 170.5984C229.6832 401.2032 196.608 486.0928 196.608 580.608c0.0512 173.9264 141.5168 315.392 315.392 315.392s315.3408-141.4656 315.3408-315.3408v-0.256c2.048-173.2608-97.28-289.6896-149.6576-338.944-3.4304-3.2256-9.0112-1.7408-10.4448 2.7136-16.2816 49.92-54.016 130.3552-134.8096 168.6016l-24.2688 11.52c-4.6592 2.2016-9.9328-1.7408-9.0624-6.8608l4.4032-26.5216c13.824-83.6608-9.216-164.2496-36.864-213.3504z" fill="#787977" p-id="2298"></path><path d="M395.8784 600.3712H335.616V530.944h-31.6416v167.936h31.6416v-68.0448h60.2624v68.0448h31.6416v-167.936h-31.6416zM554.5472 536.8832c-9.2672-5.12-20.0192-7.68-32.1536-7.68-12.1856 0-22.8864 2.56-32.1536 7.68-9.2672 5.12-16.4352 12.3392-21.5552 21.7088-5.0688 9.3696-7.6288 20.1728-7.6288 32.512v47.5648c0 12.3392 2.56 23.1424 7.6288 32.512s12.288 16.5888 21.5552 21.7088 20.0192 7.68 32.1536 7.68c12.1856 0 22.8864-2.56 32.1536-7.68 9.2672-5.12 16.4352-12.3392 21.5552-21.7088 5.0688-9.3696 7.6288-20.1728 7.6288-32.512v-47.5648c0-12.3392-2.56-23.1424-7.6288-32.512s-12.288-16.5888-21.5552-21.7088z m-3.6352 102.656c0 5.8368-1.1776 11.008-3.5328 15.4624a25.2416 25.2416 0 0 1-9.984 10.3424c-4.3008 2.4064-9.3184 3.6352-15.0016 3.6352s-10.7008-1.2288-15.0016-3.6352a24.9344 24.9344 0 0 1-9.984-10.3424c-2.3552-4.4544-3.5328-9.6256-3.5328-15.4624v-49.2032c0-5.8368 1.1776-11.008 3.5328-15.4624a25.2416 25.2416 0 0 1 9.984-10.3424c4.3008-2.4064 9.3184-3.6352 15.0016-3.6352s10.7008 1.2288 15.0016 3.6352a24.9344 24.9344 0 0 1 9.984 10.3424c2.3552 4.4544 3.5328 9.6256 3.5328 15.4624v49.2032zM717.2096 530.944h-123.136v30.5152h45.7728v137.4208h31.6416v-137.4208h45.7216z" fill="#787977" p-id="2299"></path></svg>