<?xml version="1.0" standalone="no"?><!DOCTYPE svg PUBLIC "-//W3C//DTD SVG 1.1//EN" "http://www.w3.org/Graphics/SVG/1.1/DTD/svg11.dtd"><svg t="1628661235746" class="icon" viewBox="0 0 1024 1024" version="1.1" xmlns="http://www.w3.org/2000/svg" p-id="4284" xmlns:xlink="http://www.w3.org/1999/xlink" width="1rem" height="1rem"><defs><style type="text/css"></style></defs><path d="M980.48 526.08l-384-384A32 32 0 0 0 572.16 128h-48a32 32 0 0 0 0 64h34.56l353.28 353.28-240 244.48L320 435.84l5.12-236.16h42.24a32 32 0 0 0 29.44-33.28 31.36 31.36 0 0 0-32.64-31.36H291.2a32 32 0 0 0-31.36 31.36v14.72a30.72 30.72 0 0 0-15.36 10.88 31.36 31.36 0 0 0-19.84 19.2l-89.6 263.04a32 32 0 0 0 0 24.96l252.8 483.84a32 32 0 0 0 28.16 17.28 32.64 32.64 0 0 0 14.72-3.84l98.56-51.2a31.36 31.36 0 0 0 8.32-7.04 32 32 0 0 0 21.12 12.16h3.84a32 32 0 0 0 19.84-7.04l87.04-69.12a31.36 31.36 0 0 0 8.32-10.24 31.36 31.36 0 0 0 14.08-7.68l286.08-286.08a32 32 0 0 0 2.56-44.16z m-549.12 398.72l-192-361.6 256 325.76z m138.88-50.56L260.48 482.56v-12.8L624 832z" fill="#787977" p-id="4285"></path><path d="M549.12 384a56.32 56.32 0 0 1-16 29.44 56.96 56.96 0 0 1-97.28-46.72 32 32 0 0 0-28.16-35.2 32.64 32.64 0 0 0-35.2 28.16A121.6 121.6 0 1 0 576 284.16a32 32 0 1 0-45.44 45.44 56.96 56.96 0 0 1 18.56 54.4z" fill="#787977" p-id="4286"></path><path d="M507.52 389.76a32 32 0 0 0 32-32 32 32 0 0 0-32-32c-10.88 0-35.84-48-35.84-123.52s25.6-120.96 35.2-123.52 9.6 5.76 18.56 24.96a32 32 0 0 0 58.24-26.24c-24.32-54.4-58.24-64-76.16-64-64 0-99.84 94.08-99.84 187.52s33.92 188.8 99.84 188.8z" fill="#787977" p-id="4287"></path></svg>