<?xml version="1.0" standalone="no"?><!DOCTYPE svg PUBLIC "-//W3C//DTD SVG 1.1//EN" "http://www.w3.org/Graphics/SVG/1.1/DTD/svg11.dtd"><svg t="1625462249515" class="icon" viewBox="0 0 1024 1024" version="1.1" xmlns="http://www.w3.org/2000/svg" p-id="11217" xmlns:xlink="http://www.w3.org/1999/xlink" width="1rem" height="1rem"><defs><style type="text/css"></style></defs><path d="M430.08 81.92c188.04736 0 344.94464 133.38624 381.21472 310.70208C912.40448 436.9408 983.04 537.9072 983.04 655.36c0 67.91168-23.61344 130.31424-63.0784 179.42528l16.6912 50.03264a40.96 40.96 0 0 1-51.8144 51.8144l-65.96608-21.99552A285.61408 285.61408 0 0 1 696.32 942.08c-80.52736 0-153.2928-33.1776-205.37344-86.6304-19.82464 3.09248-40.1408 4.7104-60.86656 4.7104a387.6864 387.6864 0 0 1-162.22208-35.328L157.4912 857.94816a40.96 40.96 0 0 1-50.62656-52.18304l27.32032-81.98144A387.584 387.584 0 0 1 40.96 471.04C40.96 256.14336 215.18336 81.92 430.08 81.92z m389.07904 384.57344L819.2 471.04c0 168.26368-106.78272 311.56224-256.28672 365.85472A224.256 224.256 0 0 0 696.32 880.64c30.98624 0 61.00992-6.22592 88.73984-18.14528l7.51616-3.3792 22.3232-10.56768 50.50368 16.83456-14.31552-42.94656 20.992-26.13248A224.0512 224.0512 0 0 0 921.6 655.36c0-79.09376-40.7552-148.6848-102.44096-188.86656z" fill="#787977" p-id="11218"></path><path d="M245.76 327.68m40.96 0l286.72 0q40.96 0 40.96 40.96l0 0q0 40.96-40.96 40.96l-286.72 0q-40.96 0-40.96-40.96l0 0q0-40.96 40.96-40.96Z" fill="#787977" p-id="11219"></path><path d="M245.76 532.48m40.96 0l163.84 0q40.96 0 40.96 40.96l0 0q0 40.96-40.96 40.96l-163.84 0q-40.96 0-40.96-40.96l0 0q0-40.96 40.96-40.96Z" fill="#787977" p-id="11220"></path></svg>