<?xml version="1.0" standalone="no"?><!DOCTYPE svg PUBLIC "-//W3C//DTD SVG 1.1//EN" "http://www.w3.org/Graphics/SVG/1.1/DTD/svg11.dtd"><svg t="1625455275713" class="icon" viewBox="0 0 1024 1024" version="1.1" xmlns="http://www.w3.org/2000/svg" p-id="2485" xmlns:xlink="http://www.w3.org/1999/xlink" width="1rem" height="1rem"><defs><style type="text/css"></style></defs><path d="M747.52 585.728l14.336-14.336c16.384-16.384 16.384-43.008 0-59.392l-286.72-286.72-225.28-6.144 2.048 51.2 188.416 6.144L747.52 585.728z" p-id="2486" fill="#787977"></path><path d="M720.896 579.584l-286.72-286.72-225.28-6.144 6.144 225.28 286.72 286.72c16.384 16.384 43.008 16.384 59.392 0l157.696-157.696C739.328 622.592 739.328 595.968 720.896 579.584zM317.44 436.224c-24.576 0-45.056-20.48-45.056-45.056 0-24.576 20.48-45.056 45.056-45.056 24.576 0 45.056 20.48 45.056 45.056C360.448 415.744 342.016 436.224 317.44 436.224z" p-id="2487" fill="#787977"></path></svg>