<?xml version="1.0" standalone="no"?><!DOCTYPE svg PUBLIC "-//W3C//DTD SVG 1.1//EN" "http://www.w3.org/Graphics/SVG/1.1/DTD/svg11.dtd"><svg t="1625536502092" class="icon" viewBox="0 0 1024 1024" version="1.1" xmlns="http://www.w3.org/2000/svg" p-id="5299" xmlns:xlink="http://www.w3.org/1999/xlink" width="1rem" height="1rem"><defs><style type="text/css"></style></defs><path d="M1023.90001 512.255975c0 101.052132-29.995071 199.328534-86.73953 284.204246-31.326941 42.959805-94.2068 0.749927-66.499505-44.459659 193.017151-281.868474-17.676274-674.558125-358.71697-671.700404C273.769265 80.298158 79.992188 274.075235 79.992188 512.255975c-2.86372 332.651515 372.7316 544.222853 655.411995 369.751891 18.892155-11.444882 43.487753-5.407472 54.930636 13.488683 11.444882 18.892155 5.405472 43.485753-13.488683 54.930636-195.356922 121.468138-466.442449 89.39127-626.900779-76.170562C-171.071294 552.588036 57.566378 0.735928 511.954004 0.30797 787.115133-5.367476 1029.601453 237.068849 1023.90001 512.255975z m-511.950005 119.988282c22.089843 0 39.996094-17.906251 39.996094-39.996094v-39.996094h181.982228c53.066818-2.111794 53.026822-77.898393 0-79.992188h-181.982228v-279.972659c-2.111794-53.066818-77.898393-53.026822-79.992188 0v279.972659h-39.996094c-53.066818 2.111794-53.026822 77.898393 0 79.992188h39.996094v39.996094c0 22.089843 17.906251 39.996094 39.996094 39.996094z" p-id="5300" fill="#009688"></path></svg>