<?xml version="1.0" standalone="no"?><!DOCTYPE svg PUBLIC "-//W3C//DTD SVG 1.1//EN" "http://www.w3.org/Graphics/SVG/1.1/DTD/svg11.dtd"><svg t="1625193316356" class="icon" viewBox="0 0 1024 1024" version="1.1" xmlns="http://www.w3.org/2000/svg" p-id="2515" xmlns:xlink="http://www.w3.org/1999/xlink" width="1rem" height="1rem"><defs><style type="text/css"></style></defs><path d="M512.4 491.7l431.8-168c8.4-3.3 13.9-11.3 13.9-20.3v-83.9c0-24.1-19.5-43.6-43.6-43.6H109.8c-24.1 0-43.6 19.5-43.6 43.6v103.2c0 9.1 5.7 17.3 14.2 20.5l400.9 148.7c10.1 3.7 21.1 3.7 31.1-0.2z" p-id="2516" fill="#ffffff"></path><path d="M479.1 571.8L95.7 428.7c-14.3-5.3-29.4 5.2-29.4 20.4v368.6c0 24.1 19.5 43.6 43.6 43.6h804.6c24.1 0 43.6-19.5 43.6-43.6V425.9c0-15.4-15.5-26-29.9-20.3L510.5 571.5c-10.1 4-21.2 4.1-31.4 0.3z" p-id="2517" fill="#ffffff"></path></svg>