<?xml version="1.0" standalone="no"?><!DOCTYPE svg PUBLIC "-//W3C//DTD SVG 1.1//EN" "http://www.w3.org/Graphics/SVG/1.1/DTD/svg11.dtd"><svg t="1628567120515" class="icon" viewBox="0 0 1024 1024" version="1.1" xmlns="http://www.w3.org/2000/svg" p-id="5487" xmlns:xlink="http://www.w3.org/1999/xlink" width="200" height="200"><defs><style type="text/css"></style></defs><path d="M512 512m-512 0a512 512 0 1 0 1024 0 512 512 0 1 0-1024 0Z" fill="#FFD05B" p-id="5488"></path><path d="M192 192h640v521.346032h-640z" fill="#324A5E" p-id="5489"></path><path d="M248.07619 248.07619H776.126984v409.193651H248.07619z" fill="#FFFFFF" p-id="5490"></path><path d="M658.08254 785.879365H365.91746l26.00635-72.533333h240.15238z" fill="#2B3B4E" p-id="5491"></path><path d="M719.644444 832H304.355556l37.180952-46.120635h340.926984z" fill="#324A5E" p-id="5492"></path><path d="M509.765079 539.834921v-51.2H487.619048c-2.234921-8.736508-5.688889-17.066667-10.158731-24.787302l15.644445-15.644444-36.165079-36.16508-15.644445 15.644445c-7.720635-4.469841-16.050794-7.92381-24.787301-10.15873v-22.146032h-51.2v22.146032c-8.736508 2.234921-17.066667 5.688889-24.787302 10.15873l-15.644445-15.644445-36.165079 36.16508 15.644445 15.644444c-4.469841 7.720635-7.92381 16.050794-10.158731 24.787302h-22.146031v51.2h22.146031c2.234921 8.736508 5.688889 17.066667 10.158731 24.787301l-15.644445 15.644445 36.165079 36.165079 15.644445-15.644444c7.720635 4.469841 16.050794 7.92381 24.787302 10.15873v22.146031H416.507937v-22.146031c8.736508-2.234921 17.066667-5.688889 24.787301-10.15873l15.644445 15.644444 36.165079-36.165079-15.644445-15.644445c4.469841-7.720635 7.92381-16.050794 10.158731-24.787301h22.146031z m-118.857142 37.99365c-34.946032 0-63.390476-28.444444-63.390477-63.390476s28.444444-63.390476 63.390477-63.390476 63.390476 28.444444 63.390476 63.390476-28.444444 63.390476-63.390476 63.390476z" fill="#FF7058" p-id="5493"></path><path d="M706.031746 344.380952c0.406349-2.844444 0.609524-5.688889 0.609524-8.533333 0-35.352381-28.647619-63.796825-63.796826-63.796825s-63.796825 28.444444-63.796825 63.796825c0 2.844444 0.203175 5.688889 0.609524 8.533333-26.615873 7.720635-45.91746 32.304762-45.91746 61.155556 0 35.352381 28.647619 63.796825 63.796825 63.796825h90.615873c35.352381 0 63.796825-28.647619 63.796825-63.796825 0-28.850794-19.301587-53.434921-45.91746-61.155556z" fill="#84DBFF" p-id="5494"></path><path d="M398.831746 374.044444h-15.847619v-69.892063h164.368254v16.050794h-148.520635zM674.336508 562.996825h-150.95873v-16.050793H658.285714v-53.84127h16.050794z" fill="#324A5E" p-id="5495"></path></svg>