<?xml version="1.0" standalone="no"?><!DOCTYPE svg PUBLIC "-//W3C//DTD SVG 1.1//EN" "http://www.w3.org/Graphics/SVG/1.1/DTD/svg11.dtd"><svg t="1628567141691" class="icon" viewBox="0 0 1024 1024" version="1.1" xmlns="http://www.w3.org/2000/svg" p-id="6944" xmlns:xlink="http://www.w3.org/1999/xlink" width="200" height="200"><defs><style type="text/css"></style></defs><path d="M512 512m-512 0a512 512 0 1 0 1024 0 512 512 0 1 0-1024 0Z" fill="#84DBFF" p-id="6945"></path><path d="M288.507937 215.974603v592.253968c0 13.206349 10.768254 23.974603 23.974603 23.974604h399.238095c13.206349 0 23.974603-10.768254 23.974603-23.974604V215.974603c0-13.206349-10.768254-23.974603-23.974603-23.974603H312.279365c-13.206349 0-23.771429 10.768254-23.771428 23.974603z" fill="#324A5E" p-id="6946"></path><path d="M330.768254 239.949206h362.463492v467.301588H330.768254z" fill="#E6E9EE" p-id="6947"></path><path d="M512 769.625397m-42.260317 0a42.260317 42.260317 0 1 0 84.520634 0 42.260317 42.260317 0 1 0-84.520634 0Z" fill="#2B3B4E" p-id="6948"></path><path d="M330.768254 751.339683h98.539683v36.571428h-98.539683z" fill="#4CDBC4" p-id="6949"></path><path d="M594.692063 751.339683h98.539683v36.571428h-98.539683z" fill="#FF7058" p-id="6950"></path><path d="M587.174603 382.577778h71.314286v71.314285H587.174603z" fill="#54C0EB" p-id="6951"></path><path d="M365.511111 272.050794H436.825397V343.365079h-71.314286z" fill="#FF7058" p-id="6952"></path><path d="M476.24127 272.050794h71.314286V343.365079h-71.314286z" fill="#54C0EB" p-id="6953"></path><path d="M587.174603 272.050794h71.314286V343.365079H587.174603zM365.511111 382.577778H436.825397v71.314285h-71.314286z" fill="#F9B54C" p-id="6954"></path><path d="M476.24127 382.577778h71.314286v71.314285h-71.314286z" fill="#324A5E" p-id="6955"></path><path d="M365.511111 493.307937H436.825397v71.314285h-71.314286z" fill="#ACB3BA" p-id="6956"></path><path d="M476.24127 493.307937h71.314286v71.314285h-71.314286z" fill="#FF7058" p-id="6957"></path><path d="M587.174603 493.307937h71.314286v71.314285H587.174603z" fill="#ACB3BA" p-id="6958"></path><path d="M587.174603 604.038095h71.314286v71.314286H587.174603z" fill="#324A5E" p-id="6959"></path></svg>