<?xml version="1.0" standalone="no"?><!DOCTYPE svg PUBLIC "-//W3C//DTD SVG 1.1//EN" "http://www.w3.org/Graphics/SVG/1.1/DTD/svg11.dtd"><svg t="1628567110042" class="icon" viewBox="0 0 1024 1024" version="1.1" xmlns="http://www.w3.org/2000/svg" p-id="4836" xmlns:xlink="http://www.w3.org/1999/xlink" width="200" height="200"><defs><style type="text/css"></style></defs><path d="M512 512m-512 0a512 512 0 1 0 1024 0 512 512 0 1 0-1024 0Z" fill="#324A5E" p-id="4837"></path><path d="M743.619048 326.095238v425.853968h88.584127V274.285714z" fill="#2C9984" p-id="4838"></path><path d="M630.450794 364.292063l-4.469842 5.28254v382.374603h88.584127V337.269841z" fill="#F9B54C" p-id="4839"></path><path d="M508.546032 505.701587v246.247619h88.380952V403.098413z" fill="#54C0EB" p-id="4840"></path><path d="M390.907937 508.342857H479.492063v243.809524h-88.584126z" fill="#ACB3BA" p-id="4841"></path><path d="M273.269841 551.009524v200.939682h88.584127V513.219048z" fill="#84DBFF" p-id="4842"></path><path d="M280.990476 505.498413l-15.238095-35.75873 92.24127-39.212699h112.55873l115.403175-133.688889 120.685714-38.603174 115.606349-68.266667 19.707937 33.523809-121.498413 71.111112-112.355556 35.961904-119.669841 138.768254h-122.514286z" fill="#FFFFFF" p-id="4843"></path><path d="M841.955556 841.955556H182.044444V182.044444h40.025397v619.885715h619.885715z" fill="#FFFFFF" p-id="4844"></path></svg>