<?xml version="1.0" standalone="no"?><!DOCTYPE svg PUBLIC "-//W3C//DTD SVG 1.1//EN" "http://www.w3.org/Graphics/SVG/1.1/DTD/svg11.dtd"><svg t="1628567147108" class="icon" viewBox="0 0 1024 1024" version="1.1" xmlns="http://www.w3.org/2000/svg" p-id="7265" xmlns:xlink="http://www.w3.org/1999/xlink" width="200" height="200"><defs><style type="text/css"></style></defs><path d="M512 512m-512 0a512 512 0 1 0 1024 0 512 512 0 1 0-1024 0Z" fill="#84DBFF" p-id="7266"></path><path d="M395.580952 485.993651l8.330159 8.330159c20.520635 20.520635 19.911111 53.434921-0.812698 73.955555l-0.40635 0.406349c-3.453968 3.453968-6.907937 7.111111-9.955555 10.768254-14.831746 17.473016-31.695238 32.914286-51.606349 44.292064-22.95873 13.206349-48.55873 32.914286-73.142857 57.498412-58.920635 58.920635-90.006349 123.530159-69.485715 144.253969s85.333333-10.361905 144.253969-69.485715c24.584127-24.584127 44.495238-50.184127 57.498412-73.142857 11.377778-19.911111 26.819048-36.977778 44.292064-51.606349 3.657143-3.047619 7.314286-6.298413 10.768254-9.955555l0.406349-0.40635c20.520635-20.520635 53.434921-21.130159 73.955555-0.812698l8.330159 8.330159c18.692063 18.692063 48.355556 20.114286 68.673016 4.063492L391.51746 417.320635c-16.050794 20.31746-14.831746 49.980952 4.063492 68.673016z" fill="#324A5E" p-id="7267"></path><path d="M391.314286 417.11746l0.203174 0.203175c1.219048-1.625397 2.64127-3.047619 4.063492-4.469841l-4.266666 4.266666z" fill="#ACB3BA" p-id="7268"></path><path d="M669.854476 570.046984L454.074921 354.263365l11.349333-11.349333L681.20381 558.697651zM395.580952 412.850794c-1.422222 1.422222-2.844444 3.047619-4.063492 4.469841l215.161905 215.161905 0.203175 0.203174 4.266666-4.266666 7.111111-7.111111-215.771428-215.568254-6.907937 7.111111zM660.926984 578.844444L445.155556 363.073016l-12.190477 12.190476-0.203174 0.203175L648.533333 591.238095l0.203175-0.203174zM423.728762 384.318984l215.781587 215.783619-12.49727 12.499302-215.783619-215.783619z" fill="#2C9984" p-id="7269"></path><path d="M660.94527 578.809905L445.161651 363.028317l8.907174-8.907174 215.783619 215.781587zM432.700952 375.501206l215.783619 215.783619-8.907174 8.907175L423.793778 384.406349zM411.306667 396.875175l215.781587 215.783619-8.907175 8.907174L402.39746 405.780317z" fill="#FFFFFF" p-id="7270"></path><path d="M831.593651 394.971429c-11.580952 11.580952-23.568254 22.755556-35.75873 33.726984-6.095238 5.28254-12.393651 10.768254-20.114286 13.409524s-17.066667 2.031746-22.755556-3.860318c-3.250794-3.250794-5.892063-8.330159-10.565079-8.533333-2.031746 0-3.860317 0.812698-5.485714 1.828571-19.098413 10.15873-35.555556 28.24127-57.295238 28.444445-1.219048 0-2.64127 0-3.657143-1.015873s-1.219048-2.64127-1.219048-4.063492c0-9.549206 3.250794-19.098413 8.736508-27.022223 2.844444-4.063492 6.298413-7.51746 8.533333-11.987301 2.234921-4.266667 3.047619-9.142857 3.860318-13.815873 1.828571-11.377778 3.047619-22.95873 3.860317-34.336508 0.609524-8.939683 0.812698-18.285714-2.844444-26.412699s-12.393651-14.628571-21.333333-12.8c-4.673016 1.015873-8.736508 4.063492-13.20635 5.079365-7.111111 1.828571-14.831746-1.625397-20.114285-6.704761s-8.736508-11.987302-11.987302-18.488889c-0.812698-1.828571-1.828571-3.860317-1.422222-5.892064 0.406349-1.625397 1.625397-2.844444 2.64127-3.860317 4.673016-4.469841 9.346032-9.142857 13.815873-13.612699 1.422222-1.422222 3.047619-3.047619 3.860317-5.079365 1.422222-3.860317-0.406349-8.330159-3.047619-11.377778-11.580952-14.019048-35.352381-13.612698-45.104762-28.850793 5.892063-18.692063 32.711111-20.72381 44.292064-36.368254l-5.28254-5.28254c-8.330159-8.330159-21.942857-8.330159-30.273016 0l-144.660317 144.660318L681.04127 558.730159l144.660317-144.660318c5.28254-5.28254 7.111111-12.393651 5.892064-19.098412z" fill="#FFD05B" p-id="7271"></path><path d="M601.396825 239.949206c9.955556 15.238095 33.52381 15.034921 45.104762 28.850794 2.64127 3.250794 4.469841 7.51746 3.047619 11.377778-0.812698 2.031746-2.234921 3.453968-3.860317 5.079365-4.673016 4.469841-9.346032 9.142857-13.815873 13.612698-1.219048 1.219048-2.234921 2.234921-2.64127 3.860318-0.406349 2.031746 0.406349 4.063492 1.422222 5.892063 3.250794 6.704762 6.704762 13.409524 11.987302 18.488889s13.003175 8.533333 20.114286 6.704762c4.673016-1.219048 8.533333-4.266667 13.206349-5.079365 8.736508-1.828571 17.473016 4.673016 21.333333 12.8 3.657143 8.126984 3.453968 17.473016 2.844445 26.412698-0.812698 11.580952-2.031746 22.95873-3.860318 34.336508-0.812698 4.673016-1.625397 9.549206-3.860317 13.815873-2.234921 4.469841-5.688889 7.92381-8.533334 11.987302-5.688889 7.720635-8.736508 17.269841-8.736508 27.022222 0 1.422222 0.203175 3.047619 1.219048 4.063492 1.015873 0.812698 2.438095 1.015873 3.657143 1.015873 21.536508-0.203175 38.196825-18.285714 57.295238-28.444444 1.625397-1.015873 3.453968-1.828571 5.485714-1.828572 4.673016 0.203175 7.111111 5.28254 10.56508 8.533334 5.688889 5.688889 15.034921 6.501587 22.755555 3.860317 7.720635-2.64127 14.019048-8.126984 20.114286-13.409524 12.190476-10.971429 24.177778-22.146032 35.75873-33.726984-0.812698-4.063492-2.64127-8.126984-5.892063-11.377778L646.095238 203.784127c-11.987302 15.44127-38.806349 17.473016-44.698413 36.165079z" fill="#FF7058" p-id="7272"></path></svg>