<?xml version="1.0" standalone="no"?><!DOCTYPE svg PUBLIC "-//W3C//DTD SVG 1.1//EN" "http://www.w3.org/Graphics/SVG/1.1/DTD/svg11.dtd"><svg t="1628567059657" class="icon" viewBox="0 0 1024 1024" version="1.1" xmlns="http://www.w3.org/2000/svg" p-id="1935" xmlns:xlink="http://www.w3.org/1999/xlink" width="200" height="200"><defs><style type="text/css"></style></defs><path d="M512 512m-512 0a512 512 0 1 0 1024 0 512 512 0 1 0-1024 0Z" fill="#324A5E" p-id="1936"></path><path d="M832 574.984127v-125.968254h-63.796825c-6.501587-26.412698-16.863492-50.996825-30.476191-73.549206l45.104762-45.104762-89.193651-89.193651-45.104762 45.104762c-22.552381-13.612698-47.339683-23.974603-73.549206-30.476191V192h-125.968254v63.796825c-26.209524 6.501587-50.996825 16.863492-73.549206 30.476191l-45.104762-45.104762-89.193651 89.193651 45.104762 45.104762c-13.612698 22.552381-23.974603 47.339683-30.476191 73.549206H192v125.968254h63.796825c6.501587 26.209524 16.863492 50.996825 30.476191 73.549206l-45.104762 45.104762 89.193651 89.193651 45.104762-45.104762c22.552381 13.612698 47.339683 23.974603 73.549206 30.476191v63.796825h125.968254v-63.796825c26.412698-6.501587 50.996825-16.863492 73.549206-30.476191l45.104762 45.104762 89.193651-89.193651-45.104762-45.104762c13.612698-22.552381 23.974603-47.339683 30.476191-73.549206h63.796825zM512 708.87619c-26.209524 0-51.2-5.079365-73.955556-14.425396-45.91746-18.692063-83.098413-54.044444-104.025396-98.539683-11.987302-25.396825-18.692063-53.84127-18.692064-83.911111 0-108.698413 88.177778-196.87619 196.876191-196.87619S709.079365 403.301587 709.079365 512c-0.203175 108.698413-88.380952 196.87619-197.079365 196.87619z" fill="#E6E9EE" p-id="1937"></path><path d="M498.996825 498.996825v-146.692063c-78.222222 6.298413-140.393651 68.469841-146.692063 146.692063h146.692063z" fill="#4CDBC4" p-id="1938"></path><path d="M525.003175 498.996825h146.692063c-6.298413-78.222222-68.469841-140.393651-146.692063-146.692063v146.692063z" fill="#FF7058" p-id="1939"></path><path d="M498.996825 525.003175h-146.692063c6.298413 78.222222 68.469841 140.393651 146.692063 146.692063v-146.692063z" fill="#FFD05B" p-id="1940"></path><path d="M525.003175 525.003175v146.692063c78.222222-6.298413 140.393651-68.469841 146.692063-146.692063h-146.692063z" fill="#54C0EB" p-id="1941"></path></svg>