<?xml version="1.0" standalone="no"?><!DOCTYPE svg PUBLIC "-//W3C//DTD SVG 1.1//EN" "http://www.w3.org/Graphics/SVG/1.1/DTD/svg11.dtd"><svg t="1628567063055" class="icon" viewBox="0 0 1024 1024" version="1.1" xmlns="http://www.w3.org/2000/svg" p-id="2093" xmlns:xlink="http://www.w3.org/1999/xlink" width="200" height="200"><defs><style type="text/css"></style></defs><path d="M512 512m-512 0a512 512 0 1 0 1024 0 512 512 0 1 0-1024 0Z" fill="#FFD05B" p-id="2094"></path><path d="M616.838095 192H295.009524v640H774.095238V349.257143z" fill="#FFFFFF" p-id="2095"></path><path d="M616.838095 349.257143H774.095238l-157.257143-157.257143z" fill="#E6E9EE" p-id="2096"></path><path d="M249.904762 294.4h292.774603v162.946032H249.904762z" fill="#324A5E" p-id="2097"></path><path d="M331.580952 339.911111c6.095238 5.28254 9.142857 13.206349 9.142858 23.974603s-3.047619 18.692063-9.549207 23.771429c-6.298413 5.079365-15.847619 7.51746-28.850793 7.51746h-11.580953v24.380953h-19.504762v-87.568254h30.88254c13.612698 0 23.365079 2.64127 29.460317 7.923809z m-14.425396 34.336508c2.438095-2.64127 3.453968-6.501587 3.453968-11.580952s-1.625397-8.736508-4.673016-10.768254-7.720635-3.250794-14.222222-3.250794H290.539683v29.460318h13.206349c6.704762 0.203175 11.174603-1.219048 13.409524-3.860318zM410.412698 331.987302h19.504762v87.568254H410.412698v-34.539683h-34.742857v34.539683h-19.504762v-87.568254h19.504762v36.571428H410.412698v-36.571428zM512 339.911111c6.095238 5.28254 9.142857 13.206349 9.142857 23.974603s-3.047619 18.692063-9.549206 23.771429c-6.298413 5.079365-15.847619 7.51746-28.850794 7.51746h-11.580952v24.380953h-19.504762v-87.568254h30.88254c13.409524 0 23.365079 2.64127 29.460317 7.923809z m-14.425397 34.336508c2.438095-2.64127 3.453968-6.501587 3.453968-11.580952s-1.625397-8.736508-4.673015-10.768254-7.720635-3.250794-14.222223-3.250794h-11.174603v29.460318h13.206349c6.704762 0.203175 11.174603-1.219048 13.409524-3.860318z" fill="#FFFFFF" p-id="2098"></path><path d="M453.485714 507.326984H729.396825V550.603175H453.485714z" fill="#F1543F" p-id="2099"></path><path d="M339.707937 507.326984h73.75238V550.603175h-73.75238z" fill="#2C9984" p-id="2100"></path><path d="M339.707937 589.409524H615.619048v43.27619H339.707937z" fill="#F9B54C" p-id="2101"></path><path d="M655.847619 589.409524h73.752381v43.27619h-73.752381z" fill="#2C9984" p-id="2102"></path><path d="M453.485714 671.288889H729.396825v43.27619H453.485714z" fill="#2B3B4E" p-id="2103"></path><path d="M339.707937 671.288889h73.75238v43.27619h-73.75238z" fill="#2C9984" p-id="2104"></path><path d="M339.707937 753.371429H615.619048v43.27619H339.707937z" fill="#84DBFF" p-id="2105"></path><path d="M655.847619 753.371429h73.752381v43.27619h-73.752381z" fill="#2C9984" p-id="2106"></path></svg>