<?xml version="1.0" standalone="no"?><!DOCTYPE svg PUBLIC "-//W3C//DTD SVG 1.1//EN" "http://www.w3.org/Graphics/SVG/1.1/DTD/svg11.dtd"><svg t="1628567042447" class="icon" viewBox="0 0 1024 1024" version="1.1" xmlns="http://www.w3.org/2000/svg" p-id="1617" xmlns:xlink="http://www.w3.org/1999/xlink" width="200" height="200"><defs><style type="text/css"></style></defs><path d="M512 512m-512 0a512 512 0 1 0 1024 0 512 512 0 1 0-1024 0Z" fill="#FD8469" p-id="1618"></path><path d="M374.247619 773.485714h260.266667v58.514286H374.247619z" fill="#F1543F" p-id="1619"></path><path d="M634.514286 749.104762c0-48.55873 11.377778-96.101587 32.507936-138.971429C684.698413 574.577778 702.984127 529.066667 702.984127 493.714286c0-142.831746-115.809524-256.609524-252.952381-240.761905-116.419048 13.409524-202.15873 122.920635-202.15873 247.669841 0 25.803175-26.006349 50.590476-43.276191 68.876191l-10.361904 11.174603c-4.87619 5.28254-1.422222 14.222222 5.485714 14.222222H247.873016v37.180952l23.365079 8.533334-23.365079 8.533333v17.879365c0 18.895238 14.222222 34.133333 31.898413 34.133334h62.374603c17.67619 0 31.898413 15.238095 31.898412 34.133333v38.196825h260.266667v-24.380952h0.203175z" fill="#E6E9EE" p-id="1620"></path><path d="M657.879365 192c-96.101587 0-174.120635 64-174.120635 142.831746 0 39.822222 19.911111 75.784127 51.809524 101.790476l-19.707937 81.269841 110.32381-42.463492c10.361905 1.625397 20.926984 2.438095 31.695238 2.438096 96.101587 0 174.120635-64 174.120635-142.831746 0-79.034921-78.019048-143.034921-174.120635-143.034921z" fill="#324A5E" p-id="1621"></path><path d="M505.904762 336.863492V325.079365l36.774603-19.707936v12.596825l-24.380952 12.8 24.380952 13.003175v12.8l-36.774603-19.707937zM587.580952 304.761905h11.784127v60.139682h-11.784127V341.333333h-21.130158v23.568254H554.666667V304.761905h11.784127v25.193651h21.130158V304.761905zM634.920635 316.546032v48.55873h-11.784127v-48.55873h-15.034921V304.761905h41.853969v11.580952h-15.034921v0.203175zM706.031746 327.111111l-14.222222 32.914286H684.698413l-14.222223-32.914286v37.790476h-11.784127V304.761905h16.050794l13.612699 33.11746 13.815873-33.11746h15.847619v60.139682h-11.784127V327.111111h-0.203175zM730.819048 364.901587V304.761905h11.784127v48.152381h22.552381v11.987301h-34.336508zM809.853968 325.079365v11.784127l-36.774603 19.707937v-12.8l24.380952-13.003175-24.380952-12.8v-12.596825l36.774603 19.707936z" fill="#FFFFFF" p-id="1622"></path></svg>