<?xml version="1.0" standalone="no"?><!DOCTYPE svg PUBLIC "-//W3C//DTD SVG 1.1//EN" "http://www.w3.org/Graphics/SVG/1.1/DTD/svg11.dtd"><svg t="1628567054257" class="icon" viewBox="0 0 1024 1024" version="1.1" xmlns="http://www.w3.org/2000/svg" p-id="1774" xmlns:xlink="http://www.w3.org/1999/xlink" width="200" height="200"><defs><style type="text/css"></style></defs><path d="M512 512m-512 0a512 512 0 1 0 1024 0 512 512 0 1 0-1024 0Z" fill="#FD8469" p-id="1775"></path><path d="M731.631746 832H292.368254c-3.047619 0-5.688889-2.438095-5.688889-5.688889V197.688889c0-3.047619 2.438095-5.688889 5.688889-5.688889h439.263492c3.047619 0 5.688889 2.438095 5.688889 5.688889v628.622222c0 3.250794-2.64127 5.688889-5.688889 5.688889z" fill="#324A5E" p-id="1776"></path><path d="M286.679365 263.92381h450.64127v451.047619H286.679365z" fill="#E6E9EE" p-id="1777"></path><path d="M558.933333 239.949206h-93.866666c-1.625397 0-3.047619-1.422222-3.047619-3.047619v-17.67619c0-1.625397 1.422222-3.047619 3.047619-3.047619h93.866666c1.625397 0 3.047619 1.422222 3.047619 3.047619v17.67619c0 1.625397-1.422222 3.047619-3.047619 3.047619z" fill="#2B3B4E" p-id="1778"></path><path d="M512 773.485714m-42.260317 0a42.260317 42.260317 0 1 0 84.520634 0 42.260317 42.260317 0 1 0-84.520634 0Z" fill="#2B3B4E" p-id="1779"></path><path d="M353.726984 316.139683H414.47619v346.615873h-60.749206z" fill="#F1543F" p-id="1780"></path><path d="M439.060317 396.190476H499.809524v266.768254h-60.749207z" fill="#2C9984" p-id="1781"></path><path d="M524.190476 476.24127h60.749207v186.71746H524.190476z" fill="#F9B54C" p-id="1782"></path><path d="M609.52381 556.088889h60.749206v106.666667H609.52381z" fill="#ACB3BA" p-id="1783"></path></svg>