<?xml version="1.0" standalone="no"?><!DOCTYPE svg PUBLIC "-//W3C//DTD SVG 1.1//EN" "http://www.w3.org/Graphics/SVG/1.1/DTD/svg11.dtd"><svg t="1628567068616" class="icon" viewBox="0 0 1024 1024" version="1.1" xmlns="http://www.w3.org/2000/svg" p-id="2419" xmlns:xlink="http://www.w3.org/1999/xlink" width="200" height="200"><defs><style type="text/css"></style></defs><path d="M512 512m-512 0a512 512 0 1 0 1024 0 512 512 0 1 0-1024 0Z" fill="#90DFAA" p-id="2420"></path><path d="M616.025397 192H259.047619v640h505.904762V341.130159z" fill="#FFFFFF" p-id="2421"></path><path d="M616.025397 341.130159h148.926984l-148.926984-149.130159zM295.415873 463.847619zM488.228571 546.133333c1.219048-1.219048 2.438095-2.234921 3.453969-3.453968l-3.453969 3.453968z" fill="#CED5E0" p-id="2422"></path><path d="M417.52381 483.149206v94.273016c25.396825-1.828571 48.55873-11.784127 66.641269-27.631746l-66.641269-66.64127z" fill="#ACB3BA" p-id="2423"></path><path d="M417.52381 460.596825l78.019047 78.019048c17.473016-20.114286 28.038095-46.120635 28.038095-74.768254 0-60.342857-46.730159-109.511111-106.057142-113.574603v110.323809z" fill="#54C0EB" p-id="2424"></path><path d="M401.473016 455.92381v-105.650794c-56.48254 3.860317-101.587302 48.965079-105.650794 105.650794h105.650794z" fill="#324A5E" p-id="2425"></path><path d="M401.473016 471.974603h-105.650794c3.860317 56.48254 48.965079 101.587302 105.650794 105.650794v-105.650794z" fill="#4CDBC4" p-id="2426"></path><path d="M583.92381 381.155556h122.514285v19.098412h-122.514285z" fill="#F1543F" p-id="2427"></path><path d="M561.574603 429.91746h166.806349v19.098413h-166.806349z" fill="#ACB3BA" p-id="2428"></path><path d="M561.574603 478.88254h166.806349v19.098412h-166.806349z" fill="#4CDBC4" p-id="2429"></path><path d="M561.574603 527.644444h166.806349v19.098413h-166.806349z" fill="#2C9984" p-id="2430"></path><path d="M318.171429 629.638095h122.514285v19.098413h-122.514285z" fill="#324A5E" p-id="2431"></path><path d="M295.822222 678.4h166.806349v19.098413h-166.806349z" fill="#2C9984" p-id="2432"></path><path d="M295.822222 727.365079h166.806349v19.098413h-166.806349z" fill="#54C0EB" p-id="2433"></path><path d="M295.822222 776.126984h166.806349v19.098413h-166.806349z" fill="#FF7058" p-id="2434"></path><path d="M685.714286 639.187302h42.869841v155.83492h-42.869841z" fill="#F1543F" p-id="2435"></path><path d="M623.542857 703.187302H666.412698v91.83492h-42.869841z" fill="#324A5E" p-id="2436"></path><path d="M561.574603 751.136508h42.869841v43.885714h-42.869841z" fill="#F9B54C" p-id="2437"></path><path d="M335.44127 234.463492h203.987301v41.244445H335.44127z" fill="#F1543F" p-id="2438"></path></svg>