<?xml version="1.0" standalone="no"?><!DOCTYPE svg PUBLIC "-//W3C//DTD SVG 1.1//EN" "http://www.w3.org/Graphics/SVG/1.1/DTD/svg11.dtd"><svg t="1628567073695" class="icon" viewBox="0 0 1024 1024" version="1.1" xmlns="http://www.w3.org/2000/svg" p-id="2747" xmlns:xlink="http://www.w3.org/1999/xlink" width="200" height="200"><defs><style type="text/css"></style></defs><path d="M512 512m-512 0a512 512 0 1 0 1024 0 512 512 0 1 0-1024 0Z" fill="#84DBFF" p-id="2748"></path><path d="M335.847619 270.628571h352.304762V759.873016H335.847619z" fill="#FFFFFF" p-id="2749"></path><path d="M355.149206 743.415873h313.904762V287.288889H355.149206v456.126984z m19.504762-436.215873h274.488889v416.304762H374.653968V307.2z" fill="#CED5E0" p-id="2750"></path><path d="M257.219048 270.628571h55.466666v33.117461h-55.466666zM335.847619 192h33.11746v55.466667h-33.11746zM711.314286 270.628571h55.466666v33.117461h-55.466666zM655.034921 192h33.11746v55.466667h-33.11746zM257.219048 726.755556h55.466666V759.873016h-55.466666zM335.847619 776.533333h33.11746v55.466667h-33.11746zM711.314286 726.755556h55.466666V759.873016h-55.466666zM655.034921 776.533333h33.11746v55.466667h-33.11746z" fill="#324A5E" p-id="2751"></path></svg>