<?xml version="1.0" standalone="no"?><!DOCTYPE svg PUBLIC "-//W3C//DTD SVG 1.1//EN" "http://www.w3.org/Graphics/SVG/1.1/DTD/svg11.dtd"><svg t="1628567134649" class="icon" viewBox="0 0 1024 1024" version="1.1" xmlns="http://www.w3.org/2000/svg" p-id="6455" xmlns:xlink="http://www.w3.org/1999/xlink" width="200" height="200"><defs><style type="text/css"></style></defs><path d="M512 512m-512 0a512 512 0 1 0 1024 0 512 512 0 1 0-1024 0Z" fill="#324A5E" p-id="6456"></path><path d="M654.780952 831.853714l-283.022222 0.650159-1.473016-640 283.022223-0.650159z" fill="#FFFFFF" p-id="6457"></path><path d="M512 301.511111m-91.428571 0a91.428571 91.428571 0 1 0 182.857142 0 91.428571 91.428571 0 1 0-182.857142 0Z" fill="#FF7058" p-id="6458"></path><path d="M512 344.990476c-23.974603 0-43.479365-19.504762-43.479365-43.479365 0-23.974603 19.504762-43.479365 43.479365-43.68254 23.974603 0 43.479365 19.504762 43.68254 43.479366-0.203175 24.177778-19.504762 43.68254-43.68254 43.682539z" fill="#F1543F" p-id="6459"></path><path d="M512.406349 512.203175m-91.428571 0a91.428571 91.428571 0 1 0 182.857143 0 91.428571 91.428571 0 1 0-182.857143 0Z" fill="#FFD05B" p-id="6460"></path><path d="M512.406349 555.68254c-23.974603 0-43.479365-19.504762-43.479365-43.479365 0-23.974603 19.504762-43.479365 43.479365-43.68254 23.974603 0 43.479365 19.504762 43.68254 43.479365 0 23.974603-19.504762 43.68254-43.68254 43.68254z" fill="#F9B54C" p-id="6461"></path><path d="M513.015873 722.692063m-91.428571 0a91.428571 91.428571 0 1 0 182.857142 0 91.428571 91.428571 0 1 0-182.857142 0Z" fill="#4CDBC4" p-id="6462"></path><path d="M513.015873 766.171429c-23.974603 0-43.479365-19.504762-43.479365-43.479366s19.504762-43.479365 43.479365-43.682539c23.974603 0 43.479365 19.504762 43.68254 43.479365 0 11.580952-4.469841 22.552381-12.596826 30.88254-8.533333 8.330159-19.301587 12.8-31.085714 12.8z" fill="#2C9984" p-id="6463"></path><path d="M652.8 191.796825l0.203175 143.238096 104.025396-143.44127z" fill="#FF7058" p-id="6464"></path><path d="M653.206349 405.130159l0.406349 143.238095 104.025397-143.44127z" fill="#F9B54C" p-id="6465"></path><path d="M653.815873 618.463492l0.203175 143.238095 104.025396-143.44127z" fill="#4CDBC4" p-id="6466"></path><path d="M370.184127 192.406349l0.406349 143.238095-104.63492-143.03492z" fill="#FF7058" p-id="6467"></path><path d="M370.793651 405.739683l0.406349 143.238095-104.838095-143.034921z" fill="#F9B54C" p-id="6468"></path><path d="M371.2 619.073016l0.406349 143.238095-104.63492-143.034921z" fill="#4CDBC4" p-id="6469"></path></svg>