<?xml version="1.0" standalone="no"?><!DOCTYPE svg PUBLIC "-//W3C//DTD SVG 1.1//EN" "http://www.w3.org/Graphics/SVG/1.1/DTD/svg11.dtd"><svg t="1628567066107" class="icon" viewBox="0 0 1024 1024" version="1.1" xmlns="http://www.w3.org/2000/svg" p-id="2256" xmlns:xlink="http://www.w3.org/1999/xlink" width="200" height="200"><defs><style type="text/css"></style></defs><path d="M512 512m-512 0a512 512 0 1 0 1024 0 512 512 0 1 0-1024 0Z" fill="#324A5E" p-id="2257"></path><path d="M766.374603 257.625397l-56.48254 56.48254c50.793651 50.793651 82.08254 120.685714 82.08254 197.892063h80.050794c0-99.352381-40.431746-189.155556-105.650794-254.374603z" fill="#F1543F" p-id="2258"></path><path d="M512 791.974603v80.050794c198.501587 0 360.025397-161.52381 360.025397-360.025397h-80.050794c0 154.412698-125.561905 279.974603-279.974603 279.974603z" fill="#54C0EB" p-id="2259"></path><path d="M232.025397 512H151.974603c0 99.352381 40.431746 189.155556 105.650794 254.374603l56.48254-56.48254c-50.793651-50.793651-82.08254-120.685714-82.08254-197.892063z" fill="#2C9984" p-id="2260"></path><path d="M512 232.025397V151.974603c-198.501587 0-360.025397 161.52381-360.025397 360.025397h80.050794c0-154.412698 125.561905-279.974603 279.974603-279.974603z" fill="#F1543F" p-id="2261"></path><path d="M314.107937 709.892063l-56.48254 56.48254c65.219048 65.219048 155.225397 105.650794 254.374603 105.650794v-80.050794c-77.206349 0-147.098413-31.288889-197.892063-82.08254z" fill="#F9B54C" p-id="2262"></path><path d="M709.892063 314.107937l56.48254-56.48254c-65.219048-65.219048-155.225397-105.650794-254.374603-105.650794v80.050794c77.206349 0 147.098413 31.288889 197.892063 82.08254z" fill="#ACB3BA" p-id="2263"></path><path d="M320 366.730159h79.034921v290.742857h-79.034921z" fill="#FFFFFF" p-id="2264"></path><path d="M421.790476 414.679365h79.034921v242.590476h-79.034921z" fill="#54C0EB" p-id="2265"></path><path d="M523.377778 462.628571h79.03492v194.64127h-79.03492z" fill="#FFD05B" p-id="2266"></path><path d="M624.965079 510.577778h79.034921v146.692063h-79.034921z" fill="#4CDBC4" p-id="2267"></path></svg>