<?xml version="1.0" standalone="no"?><!DOCTYPE svg PUBLIC "-//W3C//DTD SVG 1.1//EN" "http://www.w3.org/Graphics/SVG/1.1/DTD/svg11.dtd"><svg t="1628567103093" class="icon" viewBox="0 0 1024 1024" version="1.1" xmlns="http://www.w3.org/2000/svg" p-id="4348" xmlns:xlink="http://www.w3.org/1999/xlink" width="200" height="200"><defs><style type="text/css"></style></defs><path d="M512 512m-512 0a512 512 0 1 0 1024 0 512 512 0 1 0-1024 0Z" fill="#84DBFF" p-id="4349"></path><path d="M192 192h556.495238v542.679365H192z" fill="#324A5E" p-id="4350"></path><path d="M240.761905 309.028571h459.174603v376.888889h-459.174603z" fill="#FFFFFF" p-id="4351"></path><path d="M240.761905 229.790476h48.355555v41.447619h-48.355555z" fill="#FF7058" p-id="4352"></path><path d="M320.609524 229.790476h48.355555v41.447619h-48.355555z" fill="#FFFFFF" p-id="4353"></path><path d="M400.457143 229.790476h48.355555v41.447619h-48.355555z" fill="#FFD05B" p-id="4354"></path><path d="M517.485714 229.790476h182.247619v41.447619h-182.247619z" fill="#FFFFFF" p-id="4355"></path><path d="M274.692063 405.942857h391.314286v71.314286H274.692063z" fill="#2C9984" p-id="4356"></path><path d="M494.933333 501.434921h171.073016v71.314285h-171.073016z" fill="#ACB3BA" p-id="4357"></path><path d="M274.692063 501.434921h171.073016v71.314285h-171.073016z" fill="#324A5E" p-id="4358"></path><path d="M274.692063 596.72381h391.314286v71.314285H274.692063z" fill="#54C0EB" p-id="4359"></path><path d="M274.692063 326.907937h171.073016v20.723809h-171.073016z" fill="#324A5E" p-id="4360"></path><path d="M494.933333 326.907937h171.073016v20.723809h-171.073016z" fill="#ACB3BA" p-id="4361"></path><path d="M274.692063 366.32381h171.073016v20.723809h-171.073016z" fill="#F1543F" p-id="4362"></path><path d="M494.933333 366.32381h171.073016v20.723809h-171.073016z" fill="#54C0EB" p-id="4363"></path><path d="M768.406349 832L700.952381 779.987302l-67.657143 52.012698v-188.342857h135.111111z" fill="#FF7058" p-id="4364"></path><path d="M700.952381 576m-131.047619 0a131.047619 131.047619 0 1 0 262.095238 0 131.047619 131.047619 0 1 0-262.095238 0Z" fill="#F9B54C" p-id="4365"></path><path d="M700.952381 576m-104.025397 0a104.025397 104.025397 0 1 0 208.050794 0 104.025397 104.025397 0 1 0-208.050794 0Z" fill="#FFD05B" p-id="4366"></path><path d="M700.952381 494.32381l23.365079 49.777777 52.419048 7.92381-37.993651 38.806349 8.939683 54.857143-46.730159-25.803175-46.933333 25.803175 8.939682-54.857143-37.790476-38.806349 52.419048-7.92381z" fill="#F9B54C" p-id="4367"></path></svg>