<?xml version="1.0" standalone="no"?><!DOCTYPE svg PUBLIC "-//W3C//DTD SVG 1.1//EN" "http://www.w3.org/Graphics/SVG/1.1/DTD/svg11.dtd"><svg t="1628567081540" class="icon" viewBox="0 0 1024 1024" version="1.1" xmlns="http://www.w3.org/2000/svg" p-id="3214" xmlns:xlink="http://www.w3.org/1999/xlink" width="200" height="200"><defs><style type="text/css"></style></defs><path d="M512 512m-512 0a512 512 0 1 0 1024 0 512 512 0 1 0-1024 0Z" fill="#FFD05B" p-id="3215"></path><path d="M748.495238 228.368254l66.64127 66.64127c14.222222 14.222222 14.628571 36.977778 1.219048 51.809524L439.669841 763.936508c-14.425397 16.050794-39.212698 16.660317-54.450793 1.422222L277.942857 658.285714c-15.238095-15.238095-14.628571-40.025397 1.422222-54.450793l417.320635-376.685715c14.831746-13.612698 37.587302-13.003175 51.809524 1.219048z" fill="#FF7058" p-id="3216"></path><path d="M256.406349 713.346032l73.549207 73.549206c1.828571 1.828571 5.079365 1.828571 6.907936 0l34.946032-34.946032-80.457143-80.457143-34.946032 34.946032c-1.828571 1.828571-1.828571 4.87619 0 6.907937z" fill="#324A5E" p-id="3217"></path><path d="M281.396825 804.368254l32.914286-32.914286-42.260317-42.260317-63.593651 63.593651c-5.28254 5.28254-1.422222 14.019048 5.892063 14.019047h61.358731c2.031746 0 4.063492-1.015873 5.688888-2.438095z" fill="#4CDBC4" p-id="3218"></path></svg>