<?xml version="1.0" standalone="no"?><!DOCTYPE svg PUBLIC "-//W3C//DTD SVG 1.1//EN" "http://www.w3.org/Graphics/SVG/1.1/DTD/svg11.dtd"><svg t="1628567084018" class="icon" viewBox="0 0 1024 1024" version="1.1" xmlns="http://www.w3.org/2000/svg" p-id="3370" xmlns:xlink="http://www.w3.org/1999/xlink" width="200" height="200"><defs><style type="text/css"></style></defs><path d="M512 512m-512 0a512 512 0 1 0 1024 0 512 512 0 1 0-1024 0Z" fill="#84DBFF" p-id="3371"></path><path d="M192 192h568.888889V711.111111h-568.888889z" fill="#F1543F" p-id="3372"></path><path d="M241.777778 311.669841h469.333333v349.663492H241.777778zM241.777778 230.603175h49.371428v42.463492H241.777778zM323.453968 230.603175h49.371429v42.463492h-49.371429z" fill="#FFFFFF" p-id="3373"></path><path d="M404.926984 230.603175h49.371429v42.463492h-49.371429z" fill="#2B3B4E" p-id="3374"></path><path d="M524.8 230.603175H711.111111v42.463492h-186.311111z" fill="#FFFFFF" p-id="3375"></path><path d="M375.060317 352.914286h295.619048V386.031746H375.060317z" fill="#ACB3BA" p-id="3376"></path><path d="M282.006349 352.914286h60.139683V386.031746h-60.139683zM375.060317 430.933333h295.619048v33.117461H375.060317z" fill="#324A5E" p-id="3377"></path><path d="M282.006349 430.933333h60.139683v33.117461h-60.139683z" fill="#4CDBC4" p-id="3378"></path><path d="M375.060317 508.952381h295.619048v33.11746H375.060317z" fill="#F9B54C" p-id="3379"></path><path d="M282.006349 508.952381h60.139683v33.11746h-60.139683zM375.060317 586.971429h295.619048v33.11746H375.060317z" fill="#54C0EB" p-id="3380"></path><path d="M282.006349 586.971429h60.139683v33.11746h-60.139683z" fill="#F1543F" p-id="3381"></path><path d="M831.796825 676.165079v-125.765079c-86.349206-3.047619-124.546032-52.825397-124.546031-52.825397s-38.196825 49.777778-124.546032 52.825397v125.765079s-9.142857 109.104762 124.546032 155.834921c133.892063-46.730159 124.546032-155.834921 124.546031-155.834921z" fill="#324A5E" p-id="3382"></path><path d="M722.692063 654.222222h80.660318v-77.815873c-34.946032-5.079365-61.561905-17.066667-80.660318-29.257143V654.222222z" fill="#FFD05B" p-id="3383"></path><path d="M691.809524 654.222222v-107.073016c-19.098413 11.987302-45.91746 23.974603-80.660318 29.257143V654.222222h80.660318z" fill="#E6E9EE" p-id="3384"></path><path d="M691.809524 684.901587h-80.863492c1.015873 19.301587 10.15873 75.174603 80.863492 109.714286v-109.714286z" fill="#FFD05B" p-id="3385"></path><path d="M722.692063 684.901587v109.714286c70.907937-34.742857 79.847619-90.819048 80.863493-109.714286h-80.863493z" fill="#E6E9EE" p-id="3386"></path></svg>