<?xml version="1.0" standalone="no"?><!DOCTYPE svg PUBLIC "-//W3C//DTD SVG 1.1//EN" "http://www.w3.org/Graphics/SVG/1.1/DTD/svg11.dtd"><svg t="1628567107809" class="icon" viewBox="0 0 1024 1024" version="1.1" xmlns="http://www.w3.org/2000/svg" p-id="4675" xmlns:xlink="http://www.w3.org/1999/xlink" width="200" height="200"><defs><style type="text/css"></style></defs><path d="M512 512m-512 0a512 512 0 1 0 1024 0 512 512 0 1 0-1024 0Z" fill="#FD8469" p-id="4676"></path><path d="M192 180.215873h640v640h-640z" fill="#324A5E" p-id="4677"></path><path d="M250.920635 325.485714h522.15873v435.606349h-522.15873zM316.139683 271.44127h-60.952381c-2.438095 0-4.266667-1.828571-4.266667-4.266667v-32.507936c0-2.438095 1.828571-4.266667 4.266667-4.266667h60.952381c2.438095 0 4.266667 1.828571 4.266666 4.266667v32.507936c0 2.234921-1.828571 4.266667-4.266666 4.266667z" fill="#FFFFFF" p-id="4678"></path><path d="M430.933333 271.44127h-60.952381c-2.438095 0-4.266667-1.828571-4.266666-4.266667v-32.507936c0-2.438095 1.828571-4.266667 4.266666-4.266667h60.952381c2.438095 0 4.266667 1.828571 4.266667 4.266667v32.507936c0 2.234921-2.031746 4.266667-4.266667 4.266667z" fill="#F9B54C" p-id="4679"></path><path d="M545.52381 271.44127h-60.952381c-2.438095 0-4.266667-1.828571-4.266667-4.266667v-32.507936c0-2.438095 1.828571-4.266667 4.266667-4.266667h60.952381c2.438095 0 4.266667 1.828571 4.266666 4.266667v32.507936c0.203175 2.234921-1.828571 4.266667-4.266666 4.266667zM439.669841 403.301587l46.933334 175.136508h192.406349l47.136508-175.136508z" fill="#54C0EB" p-id="4680"></path><path d="M445.155556 693.028571a45.511111 45.511111 0 1 0 91.022222 0 45.511111 45.511111 0 1 0-91.022222 0Z" fill="#FFD05B" p-id="4681"></path><path d="M490.666667 706.64127c-7.314286 0-13.409524-6.095238-13.409524-13.409524 0-7.51746 6.095238-13.409524 13.409524-13.409524s13.409524 6.095238 13.409523 13.409524c0.203175 7.314286-5.892063 13.409524-13.409523 13.409524z" fill="#F9B54C" p-id="4682"></path><path d="M577.422222 693.028571a45.511111 45.511111 0 1 0 91.022222 0 45.511111 45.511111 0 1 0-91.022222 0Z" fill="#FFD05B" p-id="4683"></path><path d="M622.933333 706.64127c-7.314286 0-13.409524-6.095238-13.409523-13.409524 0-7.51746 6.095238-13.409524 13.409523-13.409524s13.409524 6.095238 13.409524 13.409524-5.892063 13.409524-13.409524 13.409524z" fill="#F9B54C" p-id="4684"></path><path d="M464.253968 598.146032l-54.857143-180.419048c-10.768254-35.352381-42.869841-59.12381-79.847619-59.123809h-21.536508c-10.971429 0-19.911111 8.939683-19.911111 19.911111s8.939683 19.911111 19.911111 19.911111h21.536508c19.098413 0 36.165079 12.596825 41.650794 30.88254L434.793651 637.968254h235.073016c10.971429 0 19.911111-8.939683 19.911111-19.911111s-8.939683-19.911111-19.911111-19.911111H464.253968z" fill="#F1543F" p-id="4685"></path><path d="M503.873016 432.965079h19.504762V548.571429H503.873016zM549.993651 432.965079h19.504762V548.571429h-19.504762zM596.31746 432.965079h19.504762V548.571429h-19.504762zM642.438095 432.965079h19.504762V548.571429h-19.504762z" fill="#FFFFFF" p-id="4686"></path></svg>