<?xml version="1.0" standalone="no"?><!DOCTYPE svg PUBLIC "-//W3C//DTD SVG 1.1//EN" "http://www.w3.org/Graphics/SVG/1.1/DTD/svg11.dtd"><svg t="1628567089849" class="icon" viewBox="0 0 1024 1024" version="1.1" xmlns="http://www.w3.org/2000/svg" p-id="3695" xmlns:xlink="http://www.w3.org/1999/xlink" width="200" height="200"><defs><style type="text/css"></style></defs><path d="M512 512m-512 0a512 512 0 1 0 1024 0 512 512 0 1 0-1024 0Z" fill="#FFD05B" p-id="3696"></path><path d="M425.853968 786.285714h-174.120635c-3.453968 0-6.298413-2.844444-6.298412-6.298412V196.266667c0-3.453968 2.844444-6.298413 6.298412-6.298413h174.120635c3.453968 0 6.298413 2.844444 6.298413 6.298413v583.720635c0 3.453968-2.844444 6.298413-6.298413 6.298412z" fill="#324A5E" p-id="3697"></path><path d="M403.098413 278.755556H274.285714c-1.219048 0-2.031746-1.015873-2.031746-2.031746v-55.873016c0-1.219048 1.015873-2.031746 2.031746-2.031746h128.812699c1.219048 0 2.031746 1.015873 2.031746 2.031746v55.873016c0 1.015873-0.812698 2.031746-2.031746 2.031746z" fill="#84DBFF" p-id="3698"></path><path d="M403.098413 380.749206H274.285714c-1.219048 0-2.031746-1.015873-2.031746-2.031746v-55.873016c0-1.219048 1.015873-2.031746 2.031746-2.031746h128.812699c1.219048 0 2.031746 1.015873 2.031746 2.031746v55.873016c0 1.219048-0.812698 2.031746-2.031746 2.031746z" fill="#FFD05B" p-id="3699"></path><path d="M403.098413 482.946032H274.285714c-1.219048 0-2.031746-1.015873-2.031746-2.031746v-55.873016c0-1.219048 1.015873-2.031746 2.031746-2.031746h128.812699c1.219048 0 2.031746 1.015873 2.031746 2.031746v55.873016c0 1.015873-0.812698 2.031746-2.031746 2.031746z" fill="#FF7058" p-id="3700"></path><path d="M403.098413 584.939683H274.285714c-1.219048 0-2.031746-1.015873-2.031746-2.031746v-55.873016c0-1.219048 1.015873-2.031746 2.031746-2.031746h128.812699c1.219048 0 2.031746 1.015873 2.031746 2.031746v55.873016c0 1.219048-0.812698 2.031746-2.031746 2.031746z" fill="#4CDBC4" p-id="3701"></path><path d="M403.098413 687.136508H274.285714c-1.219048 0-2.031746-1.015873-2.031746-2.031746v-55.873016c0-1.219048 1.015873-2.031746 2.031746-2.031746h128.812699c1.219048 0 2.031746 1.015873 2.031746 2.031746v55.873016c0 1.015873-0.812698 2.031746-2.031746 2.031746z" fill="#2C9984" p-id="3702"></path><path d="M338.692063 736.914286m-26.209523 0a26.209524 26.209524 0 1 0 52.419047 0 26.209524 26.209524 0 1 0-52.419047 0Z" fill="#324A5E" p-id="3703"></path><path d="M372.419048 828.546032l-138.971429-105.04127c-2.844444-2.031746-3.250794-6.095238-1.219048-8.736508l352.101588-465.676191c2.031746-2.844444 6.095238-3.250794 8.736508-1.219047l138.971428 105.04127c2.844444 2.031746 3.250794 6.095238 1.219048 8.736508L381.155556 827.326984c-2.031746 2.844444-5.892063 3.453968-8.736508 1.219048z" fill="#2B3B4E" p-id="3704"></path><path d="M660.520635 410.006349l-102.806349-77.612698c-0.812698-0.609524-1.015873-2.031746-0.406349-2.844445l33.726984-44.495238c0.609524-0.812698 2.031746-1.015873 2.844444-0.406349l102.806349 77.612698c0.812698 0.609524 1.015873 2.031746 0.406349 2.844445l-33.726984 44.495238c-0.609524 1.015873-2.031746 1.219048-2.844444 0.406349z" fill="#F9B54C" p-id="3705"></path><path d="M598.95873 491.479365l-102.806349-77.612698c-0.812698-0.609524-1.015873-2.031746-0.406349-2.844445l33.726984-44.495238c0.609524-0.812698 2.031746-1.015873 2.844444-0.406349l102.80635 77.612698c0.812698 0.609524 1.015873 2.031746 0.406349 2.844445l-33.726984 44.495238c-0.609524 1.015873-2.031746 1.015873-2.844445 0.406349z" fill="#84DBFF" p-id="3706"></path><path d="M537.396825 572.952381l-102.806349-77.612698c-0.812698-0.609524-1.015873-2.031746-0.406349-2.844445l33.726984-44.495238c0.609524-0.812698 2.031746-1.015873 2.844445-0.406349l102.806349 77.612698c0.812698 0.609524 1.015873 2.031746 0.406349 2.844445l-33.726984 44.495238c-0.812698 0.812698-2.031746 1.015873-2.844445 0.406349z" fill="#4CDBC4" p-id="3707"></path><path d="M475.834921 654.425397l-102.80635-77.612699c-0.812698-0.609524-1.015873-2.031746-0.406349-2.844444l33.726984-44.495238c0.609524-0.812698 2.031746-1.015873 2.844445-0.406349l102.806349 77.612698c0.812698 0.609524 1.015873 2.031746 0.406349 2.844445l-33.726984 44.495238c-0.812698 0.812698-2.031746 1.015873-2.844444 0.406349z" fill="#FF7058" p-id="3708"></path><path d="M414.069841 735.898413L311.263492 658.285714c-0.812698-0.609524-1.015873-2.031746-0.406349-2.844444l33.726984-44.495238c0.609524-0.812698 2.031746-1.015873 2.844444-0.406349l102.80635 77.612698c0.812698 0.609524 1.015873 2.031746 0.406349 2.844444L417.11746 735.492063c-0.812698 0.812698-2.031746 1.015873-3.047619 0.40635z" fill="#CED5E0" p-id="3709"></path><path d="M332.8 736.711111m-26.209524 0a26.209524 26.209524 0 1 0 52.419048 0 26.209524 26.209524 0 1 0-52.419048 0Z" fill="#324A5E" p-id="3710"></path><path d="M312.48254 833.828571L264.533333 666.412698c-1.015873-3.250794 1.015873-6.907937 4.266667-7.720635L829.968254 497.777778c3.250794-1.015873 6.907937 1.015873 7.720635 4.266666l47.949206 167.415873c1.015873 3.250794-1.015873 6.907937-4.266666 7.720635l-561.168254 160.711111c-3.250794 1.219048-6.704762-0.812698-7.720635-4.063492z" fill="#FFFFFF" p-id="3711"></path><path d="M794.209524 672.101587l-35.555556-123.733333c-0.406349-1.015873 0.406349-2.234921 1.422222-2.64127l53.638096-15.44127c1.015873-0.406349 2.234921 0.406349 2.64127 1.422223l35.555555 123.733333c0.406349 1.015873-0.406349 2.234921-1.422222 2.64127l-53.638095 15.44127c-1.219048 0.406349-2.438095-0.203175-2.64127-1.422223z" fill="#4CDBC4" p-id="3712"></path><path d="M696.07619 700.342857l-35.555555-123.733333c-0.406349-1.015873 0.406349-2.234921 1.422222-2.64127l53.638095-15.44127c1.015873-0.406349 2.234921 0.406349 2.64127 1.422222l35.555556 123.733334c0.406349 1.015873-0.406349 2.234921-1.422222 2.64127l-53.638096 15.441269c-1.219048 0.203175-2.438095-0.406349-2.64127-1.422222z" fill="#324A5E" p-id="3713"></path><path d="M597.942857 728.380952l-35.555555-123.733333c-0.406349-1.015873 0.406349-2.234921 1.422222-2.64127l53.638095-15.44127c1.015873-0.406349 2.234921 0.406349 2.64127 1.422223l35.555555 123.733333c0.406349 1.015873-0.406349 2.234921-1.422222 2.64127l-53.638095 15.44127c-1.219048 0.406349-2.438095-0.203175-2.64127-1.422223z" fill="#54C0EB" p-id="3714"></path><path d="M499.809524 756.622222l-35.555556-123.733333c-0.406349-1.015873 0.406349-2.234921 1.422222-2.64127l53.638096-15.44127c1.015873-0.406349 2.234921 0.406349 2.64127 1.422222l35.555555 123.733334c0.406349 1.015873-0.406349 2.234921-1.422222 2.64127l-53.638095 15.441269c-1.219048 0.203175-2.438095-0.406349-2.64127-1.422222z" fill="#F9B54C" p-id="3715"></path><path d="M401.473016 784.660317l-35.555556-123.733333c-0.406349-1.015873 0.406349-2.234921 1.422223-2.64127l53.638095-15.44127c1.015873-0.406349 2.234921 0.406349 2.64127 1.422223L459.174603 768c0.406349 1.015873-0.406349 2.234921-1.422222 2.64127l-53.638095 15.44127c-1.015873 0.406349-2.234921-0.406349-2.64127-1.422223z" fill="#FF7058" p-id="3716"></path><path d="M336.050794 736.507937m-26.209524 0a26.209524 26.209524 0 1 0 52.419047 0 26.209524 26.209524 0 1 0-52.419047 0Z" fill="#324A5E" p-id="3717"></path></svg>