<?xml version="1.0" standalone="no"?><!DOCTYPE svg PUBLIC "-//W3C//DTD SVG 1.1//EN" "http://www.w3.org/Graphics/SVG/1.1/DTD/svg11.dtd"><svg t="1628567071338" class="icon" viewBox="0 0 1024 1024" version="1.1" xmlns="http://www.w3.org/2000/svg" p-id="2590" xmlns:xlink="http://www.w3.org/1999/xlink" width="200" height="200"><defs><style type="text/css"></style></defs><path d="M512 512m-512 0a512 512 0 1 0 1024 0 512 512 0 1 0-1024 0Z" fill="#84DBFF" p-id="2591"></path><path d="M630.857143 864.304762L512 802.539683l-118.857143 61.765079V564.012698h237.714286z" fill="#F1543F" p-id="2592"></path><path d="M512 412.24127m-252.342857 0a252.342857 252.342857 0 1 0 504.685714 0 252.342857 252.342857 0 1 0-504.685714 0Z" fill="#FFD05B" p-id="2593"></path><path d="M512 625.168254c-117.434921 0-212.926984-95.492063-212.926984-212.926984S394.565079 199.111111 512 199.111111s212.926984 95.492063 212.926984 212.926984-95.492063 213.130159-212.926984 213.130159z m0-394.361905c-99.961905 0-181.434921 81.269841-181.434921 181.434921s81.269841 181.434921 181.434921 181.43492 181.434921-81.269841 181.434921-181.43492-81.473016-181.434921-181.434921-181.434921z" fill="#F9B54C" p-id="2594"></path><path d="M512 248.48254l47.542857 97.930158 106.057143 15.644445-76.8 76.190476 18.08254 107.68254-94.88254-50.793651-94.88254 50.793651 18.08254-107.68254-76.8-76.190476 106.057143-15.644445z" fill="#FFFFFF" p-id="2595"></path></svg>