<?xml version="1.0" standalone="no"?><!DOCTYPE svg PUBLIC "-//W3C//DTD SVG 1.1//EN" "http://www.w3.org/Graphics/SVG/1.1/DTD/svg11.dtd"><svg t="1628567130544" class="icon" viewBox="0 0 1024 1024" version="1.1" xmlns="http://www.w3.org/2000/svg" p-id="6126" xmlns:xlink="http://www.w3.org/1999/xlink" width="200" height="200"><defs><style type="text/css"></style></defs><path d="M512 512m-512 0a512 512 0 1 0 1024 0 512 512 0 1 0-1024 0Z" fill="#324A5E" p-id="6127"></path><path d="M598.349206 192H255.796825v640h512.40635V358.806349z" fill="#FFFFFF" p-id="6128"></path><path d="M598.349206 358.806349h169.853969l-169.853969-166.806349z" fill="#ACB3BA" p-id="6129"></path><path d="M301.511111 383.593651h421.180952v80.050793H301.511111z" fill="#F1543F" p-id="6130"></path><path d="M301.511111 493.511111H493.714286v80.050794h-192.203175z" fill="#84DBFF" p-id="6131"></path><path d="M530.488889 493.511111h192.203174v80.050794h-192.203174z" fill="#ACB3BA" p-id="6132"></path><path d="M301.511111 229.587302h105.04127v105.041269h-105.04127z" fill="#2C9984" p-id="6133"></path><path d="M436.012698 229.587302h133.485715v20.31746h-133.485715z" fill="#4CDBC4" p-id="6134"></path><path d="M436.012698 271.847619h133.485715v20.31746h-133.485715z" fill="#54C0EB" p-id="6135"></path><path d="M436.012698 314.107937h133.485715v20.31746h-133.485715z" fill="#FFD05B" p-id="6136"></path><path d="M301.511111 595.911111H493.714286v26.209524h-192.203175zM530.488889 595.911111h192.203174v26.209524h-192.203174z" fill="#ACB3BA" p-id="6137"></path><path d="M301.511111 697.092063h136.330159v28.444445h-136.330159z" fill="#84DBFF" p-id="6138"></path><path d="M466.895238 697.092063H493.714286v28.444445h-26.819048z" fill="#54C0EB" p-id="6139"></path><path d="M589.206349 697.092063h133.28254v28.444445H589.206349z" fill="#FFD05B" p-id="6140"></path><path d="M530.488889 697.092063h26.819048v28.444445h-26.819048z" fill="#F9B54C" p-id="6141"></path><path d="M589.206349 645.485714h133.28254v28.444445H589.206349z" fill="#84DBFF" p-id="6142"></path><path d="M530.488889 645.485714h26.819048v28.444445h-26.819048z" fill="#54C0EB" p-id="6143"></path><path d="M301.511111 645.485714h136.330159v28.444445h-136.330159z" fill="#FFD05B" p-id="6144"></path><path d="M466.895238 645.485714H493.714286v28.444445h-26.819048z" fill="#F9B54C" p-id="6145"></path><path d="M301.511111 747.479365h421.180952V794.412698H301.511111z" fill="#324A5E" p-id="6146"></path></svg>