<?xml version="1.0" standalone="no"?><!DOCTYPE svg PUBLIC "-//W3C//DTD SVG 1.1//EN" "http://www.w3.org/Graphics/SVG/1.1/DTD/svg11.dtd"><svg t="1628567115420" class="icon" viewBox="0 0 1024 1024" version="1.1" xmlns="http://www.w3.org/2000/svg" p-id="5165" xmlns:xlink="http://www.w3.org/1999/xlink" width="200" height="200"><defs><style type="text/css"></style></defs><path d="M512 512m-512 0a512 512 0 1 0 1024 0 512 512 0 1 0-1024 0Z" fill="#84DBFF" p-id="5166"></path><path d="M192 192h640v640h-640z" fill="#324A5E" p-id="5167"></path><path d="M248.07619 355.75873H776.126984v420.16508H248.07619z" fill="#FFFFFF" p-id="5168"></path><path d="M248.07619 251.326984h55.669842v47.746032h-55.669842z" fill="#FF7058" p-id="5169"></path><path d="M339.707937 251.326984h55.669841v47.746032h-55.669841z" fill="#FFFFFF" p-id="5170"></path><path d="M431.542857 251.326984h55.669841v47.746032h-55.669841z" fill="#FFD05B" p-id="5171"></path><path d="M566.450794 251.326984H776.126984v47.746032H566.450794z" fill="#FFFFFF" p-id="5172"></path><path d="M282.412698 407.974603h459.174604v79.034921H282.412698z" fill="#2C9984" p-id="5173"></path><path d="M282.412698 512h189.76508v79.034921H282.412698z" fill="#324A5E" p-id="5174"></path><path d="M551.822222 512H741.587302v79.034921h-189.76508z" fill="#ACB3BA" p-id="5175"></path><path d="M323.860317 663.771429l12.8 26.006349 28.64762 4.063492-20.72381 20.114286 4.87619 28.647619-25.6-13.612699-25.6 13.612699 4.876191-28.647619-20.72381-20.114286 28.647619-4.063492zM416.711111 663.771429l12.8 26.006349 28.444445 4.063492-20.72381 20.114286 5.079365 28.647619-25.6-13.612699-25.6 13.612699 4.876191-28.647619-20.72381-20.114286 28.647619-4.063492zM509.35873 663.771429l12.8 26.006349 28.647619 4.063492-20.723809 20.114286 4.87619 28.647619-25.6-13.612699-25.6 13.612699 5.079365-28.647619-20.723809-20.114286 28.444444-4.063492z" fill="#F9B54C" p-id="5176"></path><path d="M602.209524 663.771429l12.8 26.006349 28.647619 4.063492-20.72381 20.114286 4.876191 28.647619-25.6-13.612699-25.6 13.612699 4.87619-28.647619-20.723809-20.114286 28.647619-4.063492zM700.546032 663.771429l12.8 26.006349 28.647619 4.063492-20.72381 20.114286 4.876191 28.647619-25.6-13.612699-25.6 13.612699 5.079365-28.647619-20.72381-20.114286 28.444445-4.063492z" fill="#CED5E0" p-id="5177"></path></svg>