<?xml version="1.0" standalone="no"?><!DOCTYPE svg PUBLIC "-//W3C//DTD SVG 1.1//EN" "http://www.w3.org/Graphics/SVG/1.1/DTD/svg11.dtd"><svg t="1628567093257" class="icon" viewBox="0 0 1024 1024" version="1.1" xmlns="http://www.w3.org/2000/svg" p-id="3869" xmlns:xlink="http://www.w3.org/1999/xlink" width="200" height="200"><defs><style type="text/css"></style></defs><path d="M512 512m-512 0a512 512 0 1 0 1024 0 512 512 0 1 0-1024 0Z" fill="#FD8469" p-id="3870"></path><path d="M705.625397 388.469841h-96.914286v96.914286h29.663492v64.812698l-111.542857 76.596826v-333.206349h41.447619l-60.342857-101.587302-60.139683 101.384127h41.447619V554.666667l-103.415873-76.596826v-52.622222c17.473016-7.314286 29.663492-24.584127 29.663492-44.698413 0-26.819048-21.739683-48.355556-48.355555-48.355555-26.819048 0-48.355556 21.739683-48.355556 48.355555 0 20.114286 12.190476 37.180952 29.663492 44.698413v68.469841l141.20635 112.96508v118.653968c-20.926984 7.720635-36.165079 27.631746-36.16508 51.403175 0 30.273016 24.584127 54.857143 54.857143 54.857142s54.857143-24.584127 54.857143-54.857142c0-23.771429-15.034921-43.68254-36.165079-51.403175v-46.526984l149.130158-112.96508v-80.863492h29.663492v-96.711111h-0.203174z" fill="#324A5E" p-id="3871"></path></svg>