<?xml version="1.0" standalone="no"?><!DOCTYPE svg PUBLIC "-//W3C//DTD SVG 1.1//EN" "http://www.w3.org/Graphics/SVG/1.1/DTD/svg11.dtd"><svg t="1628567099796" class="icon" viewBox="0 0 1024 1024" version="1.1" xmlns="http://www.w3.org/2000/svg" p-id="4185" xmlns:xlink="http://www.w3.org/1999/xlink" width="200" height="200"><defs><style type="text/css"></style></defs><path d="M512 512m-512 0a512 512 0 1 0 1024 0 512 512 0 1 0-1024 0Z" fill="#324A5E" p-id="4186"></path><path d="M582.095238 687.746032l122.311111 122.311111c29.257143 29.257143 76.596825 29.257143 105.853968 0s29.257143-76.596825 0-105.853968l-122.311111-122.311112-105.853968 105.853969z" fill="#2C9984" p-id="4187"></path><path d="M603.834921 531.504762c53.028571-85.739683 42.463492-199.92381-31.898413-274.285714-86.95873-86.95873-227.75873-86.95873-314.71746 0s-86.95873 227.75873 0 314.71746c74.361905 74.361905 188.546032 85.130159 274.285714 31.898413l67.250794 67.250793 72.330158-72.330158-67.250793-67.250794z" fill="#4CDBC4" p-id="4188"></path><path d="M414.47619 414.47619m-174.933333 0a174.933333 174.933333 0 1 0 349.866667 0 174.933333 174.933333 0 1 0-349.866667 0Z" fill="#FFFFFF" p-id="4189"></path><path d="M414.47619 414.47619m-174.933333 0a174.933333 174.933333 0 1 0 349.866667 0 174.933333 174.933333 0 1 0-349.866667 0Z" fill="#FFFFFF" p-id="4190"></path><path d="M320 517.892063l-23.365079-6.095238 24.177777-93.053968 72.533334 35.149206 17.269841-89.19365 90.412698 28.647619 7.517461-80.660318 23.771428 2.438096-10.361904 110.120634-93.053969-29.460317-17.879365 93.257143-74.361905-35.961905z" fill="#FF7058" p-id="4191"></path><path d="M328.330159 435.2m-28.444445 0a28.444444 28.444444 0 1 0 56.888889 0 28.444444 28.444444 0 1 0-56.888889 0Z" fill="#F1543F" p-id="4192"></path><path d="M416.507937 378.107937m-28.444445 0a28.444444 28.444444 0 1 0 56.888889 0 28.444444 28.444444 0 1 0-56.888889 0Z" fill="#F1543F" p-id="4193"></path><path d="M402.08254 471.365079m-28.444445 0a28.444444 28.444444 0 1 0 56.888889 0 28.444444 28.444444 0 1 0-56.888889 0Z" fill="#F1543F" p-id="4194"></path><path d="M510.374603 406.552381m-28.444444 0a28.444444 28.444444 0 1 0 56.888889 0 28.444444 28.444444 0 1 0-56.888889 0Z" fill="#F1543F" p-id="4195"></path><path d="M753.796063 787.063873l-15.947174 15.947175-113.493333-113.493334 15.947174-15.949206z" fill="#FFFFFF" p-id="4196"></path></svg>