<?xml version="1.0" standalone="no"?><!DOCTYPE svg PUBLIC "-//W3C//DTD SVG 1.1//EN" "http://www.w3.org/Graphics/SVG/1.1/DTD/svg11.dtd"><svg t="1628567132505" class="icon" viewBox="0 0 1024 1024" version="1.1" xmlns="http://www.w3.org/2000/svg" p-id="6296" xmlns:xlink="http://www.w3.org/1999/xlink" width="200" height="200"><defs><style type="text/css"></style></defs><path d="M512 512m-512 0a512 512 0 1 0 1024 0 512 512 0 1 0-1024 0Z" fill="#90DFAA" p-id="6297"></path><path d="M872.025397 582.907937v-141.815874h-71.720635c-7.314286-29.663492-18.895238-57.498413-34.336508-82.895238l50.793651-50.79365-100.368254-100.16508-50.793651 50.793651c-25.396825-15.44127-53.231746-27.022222-82.895238-34.336508V151.974603H440.888889v71.720635c-29.663492 7.314286-57.498413 18.895238-82.895238 34.336508l-50.793651-50.793651-99.961905 100.368254 50.793651 50.793651c-15.44127 25.396825-27.022222 53.231746-34.336508 82.895238H151.974603V583.111111h71.720635c7.314286 29.663492 18.895238 57.498413 34.336508 82.895238l-50.793651 50.793651 100.16508 100.165079 50.79365-50.79365c25.396825 15.44127 53.231746 27.022222 82.895238 34.336508v71.720634h141.815874V800.507937c29.663492-7.314286 57.498413-18.895238 82.895238-34.336508l50.79365 50.79365 100.16508-100.165079-50.793651-50.793651c15.44127-25.396825 27.022222-53.231746 34.336508-82.895238h71.720635v-0.203174z" fill="#324A5E" p-id="6298"></path><path d="M512 733.460317c-29.460317 0-57.498413-5.892063-83.301587-16.253968-51.606349-20.926984-93.460317-60.749206-117.231746-110.933333-13.409524-28.647619-21.130159-60.546032-21.130159-94.273016 0-122.311111 99.149206-221.460317 221.460317-221.460317s221.460317 99.149206 221.460318 221.460317c0.203175 122.311111-98.946032 221.460317-221.257143 221.460317z" fill="#FFFFFF" p-id="6299"></path><path d="M512 656.457143c-19.301587 0-37.587302-3.860317-54.247619-10.56508-33.726984-13.612698-60.952381-39.619048-76.393651-72.330158-8.736508-18.692063-13.815873-39.619048-13.815873-61.561905 0-79.847619 64.609524-144.457143 144.457143-144.457143s144.457143 64.609524 144.457143 144.457143-64.609524 144.457143-144.457143 144.457143z" fill="#E6E9EE" p-id="6300"></path><path d="M652.190476 652.190476zM652.190476 371.809524z" fill="#FFFFFF" p-id="6301"></path><path d="M515.657143 351.492063v-36.774603c-1.219048-0.406349-2.438095-0.812698-3.657143-0.812698-1.219048 0-2.438095 0.406349-3.657143 0.812698V351.492063h7.314286zM508.342857 672.507937v36.774603c1.219048 0.406349 2.438095 0.812698 3.657143 0.812698s2.438095-0.406349 3.657143-0.812698V672.507937h-7.314286zM672.507937 515.657143h36.774603c0.406349-1.219048 0.812698-2.438095 0.812698-3.657143 0-1.219048-0.406349-2.438095-0.812698-3.657143H672.507937v7.314286zM351.492063 508.342857h-36.774603c-0.406349 1.219048-0.812698 2.438095-0.812698 3.657143s0.406349 2.438095 0.812698 3.657143H351.492063v-7.314286zM628.012698 401.066667l26.00635-26.00635c-0.609524-1.015873-1.219048-2.234921-2.031746-3.047619s-2.031746-1.422222-3.047619-2.031746l-26.00635 26.00635 5.079365 5.079365zM395.987302 622.933333L369.777778 649.142857c0.609524 1.015873 1.219048 2.234921 2.031746 3.047619s2.031746 1.422222 3.047619 2.031746l26.006349-26.006349-4.87619-5.28254zM622.933333 628.012698l26.00635 26.00635c1.015873-0.609524 2.234921-1.219048 3.047619-2.031746s1.422222-2.031746 2.031746-3.047619l-26.00635-26.00635-5.079365 5.079365zM401.066667 395.987302L374.857143 369.777778c-1.015873 0.609524-2.234921 1.219048-3.047619 2.031746s-1.422222 2.031746-2.031746 3.047619l26.006349 26.006349 5.28254-4.87619zM579.860317 366.32381l14.831746-33.726985c-1.015873-0.812698-1.828571-1.625397-3.047619-2.031746-1.015873-0.406349-2.438095-0.609524-3.657142-0.812698l-14.831746 33.726984 6.704761 2.844445zM444.139683 657.67619l-14.831746 33.726985c1.015873 0.812698 1.828571 1.625397 3.047619 2.031746 1.015873 0.406349 2.438095 0.609524 3.657142 0.812698l14.831746-33.726984-6.704761-2.844445zM657.67619 579.860317l33.726985 14.831746c0.812698-1.015873 1.625397-1.828571 2.031746-3.047619 0.406349-1.015873 0.609524-2.438095 0.812698-3.657142l-33.726984-14.831746-2.844445 6.704761zM366.32381 444.139683l-33.726985-14.831746c-0.812698 1.015873-1.625397 1.828571-2.031746 3.047619-0.406349 1.015873-0.609524 2.438095-0.812698 3.657142l33.726984 14.831746 2.844445-6.704761zM662.95873 457.142857l34.336508-13.409524c-0.203175-1.219048-0.203175-2.438095-0.609524-3.657143-0.406349-1.219048-1.219048-2.031746-2.031746-3.047619l-34.336508 13.409524 2.64127 6.704762zM361.04127 566.857143l-34.336508 13.409524c0.203175 1.219048 0.203175 2.438095 0.609524 3.657143 0.406349 1.219048 1.219048 2.031746 2.031746 3.047619l34.336508-13.409524-2.64127-6.704762zM566.857143 662.95873l13.409524 34.336508c1.219048-0.203175 2.438095-0.203175 3.657143-0.609524 1.219048-0.406349 2.031746-1.219048 3.047619-2.031746l-13.409524-34.336508-6.704762 2.64127zM457.142857 361.04127l-13.409524-34.336508c-1.219048 0.203175-2.438095 0.203175-3.657143 0.609524s-2.031746 1.219048-3.047619 2.031746l13.409524 34.336508 6.704762-2.64127z" fill="#324A5E" p-id="6302"></path><path d="M529.67619 478.273016l-8.939682-95.695238c-0.406349-4.469841-4.266667-8.126984-8.736508-8.126984-4.673016 0-8.330159 3.453968-8.736508 8.126984l-8.939682 95.695238c-12.190476 6.501587-20.520635 18.895238-20.520635 33.726984 0 21.130159 17.066667 38.196825 38.196825 38.196825s38.196825-17.066667 38.196825-38.196825c0-14.628571-8.330159-27.225397-20.520635-33.726984z" fill="#F1543F" p-id="6303"></path></svg>