<?xml version="1.0" standalone="no"?><!DOCTYPE svg PUBLIC "-//W3C//DTD SVG 1.1//EN" "http://www.w3.org/Graphics/SVG/1.1/DTD/svg11.dtd"><svg t="1628567097097" class="icon" viewBox="0 0 1024 1024" version="1.1" xmlns="http://www.w3.org/2000/svg" p-id="4023" xmlns:xlink="http://www.w3.org/1999/xlink" width="200" height="200"><defs><style type="text/css"></style></defs><path d="M512 512m-512 0a512 512 0 1 0 1024 0 512 512 0 1 0-1024 0Z" fill="#FD8469" p-id="4024"></path><path d="M220.647619 791.974603h582.704762c24.177778 0 37.384127-27.428571 21.942857-45.714286L577.828571 457.142857V202.971429h10.56508V151.974603h-152.787302v50.996826h10.56508V457.142857L198.704762 746.463492c-15.44127 18.08254-2.234921 45.511111 21.942857 45.511111z" fill="#FFFFFF" p-id="4025"></path><path d="M603.225397 550.196825H420.571429L260.266667 737.52381c-2.438095 2.844444-2.844444 5.892063-1.219048 9.142857 1.625397 3.250794 4.266667 4.87619 7.92381 4.87619h489.853968c3.657143 0 6.298413-1.625397 7.923809-4.87619s1.219048-6.298413-1.219047-9.142857l-160.304762-187.326985z" fill="#2C9984" p-id="4026"></path><path d="M446.171429 218.209524h53.841269v12.393651h-53.841269zM446.171429 258.844444h36.165079v12.393651h-36.165079zM446.171429 299.479365h53.841269v12.393651h-53.841269zM446.171429 340.114286h36.165079v12.393651h-36.165079zM446.171429 380.749206h53.841269v12.393651h-53.841269zM446.171429 421.384127h36.165079v12.393651h-36.165079z" fill="#CED5E0" p-id="4027"></path><path d="M409.6 657.473016m-26.615873 0a26.615873 26.615873 0 1 0 53.231746 0 26.615873 26.615873 0 1 0-53.231746 0Z" fill="#FFFFFF" p-id="4028"></path><path d="M542.273016 335.44127m-23.974603 0a23.974603 23.974603 0 1 0 47.949206 0 23.974603 23.974603 0 1 0-47.949206 0Z" fill="#2C9984" p-id="4029"></path><path d="M530.692063 445.561905m-12.39365 0a12.393651 12.393651 0 1 0 24.787301 0 12.393651 12.393651 0 1 0-24.787301 0Z" fill="#F1543F" p-id="4030"></path><path d="M602.412698 684.088889m-18.895238 0a18.895238 18.895238 0 1 0 37.790477 0 18.895238 18.895238 0 1 0-37.790477 0Z" fill="#FFFFFF" p-id="4031"></path><path d="M530.895238 600.177778m-18.895238 0a18.895238 18.895238 0 1 0 37.790476 0 18.895238 18.895238 0 1 0-37.790476 0Z" fill="#FFFFFF" p-id="4032"></path><path d="M473.6 495.542857m-18.08254 0a18.08254 18.08254 0 1 0 36.16508 0 18.08254 18.08254 0 1 0-36.16508 0Z" fill="#FFD05B" p-id="4033"></path></svg>