<?xml version="1.0" standalone="no"?><!DOCTYPE svg PUBLIC "-//W3C//DTD SVG 1.1//EN" "http://www.w3.org/Graphics/SVG/1.1/DTD/svg11.dtd"><svg t="1628567125990" class="icon" viewBox="0 0 1024 1024" version="1.1" xmlns="http://www.w3.org/2000/svg" p-id="5803" xmlns:xlink="http://www.w3.org/1999/xlink" width="200" height="200"><defs><style type="text/css"></style></defs><path d="M512 512m-512 0a512 512 0 1 0 1024 0 512 512 0 1 0-1024 0Z" fill="#84DBFF" p-id="5804"></path><path d="M226.133333 261.28254h571.936508v370.996825H226.133333z" fill="#FFFFFF" p-id="5805"></path><path d="M192 208.050794h640v53.231746h-640zM192 632.279365h640v53.231746h-640z" fill="#324A5E" p-id="5806"></path><path d="M341.942857 807.415873v-122.107936h-54.044444v122.107936h-33.117461v40.634921h120.076191v-40.634921zM736.304762 807.415873v-122.107936h-54.044445v122.107936h-33.11746v40.634921h120.076191v-40.634921z" fill="#2B3B4E" p-id="5807"></path><path d="M718.831746 291.352381h60.342857v310.450794h-60.342857z" fill="#F1543F" p-id="5808"></path><path d="M645.485714 355.352381h60.342857v246.450794h-60.342857z" fill="#54C0EB" p-id="5809"></path><path d="M572.139683 419.352381h60.342857v182.450794h-60.342857z" fill="#F9B54C" p-id="5810"></path><path d="M498.793651 483.352381h60.342857v118.450794h-60.342857z" fill="#2C9984" p-id="5811"></path><path d="M364.901587 481.930159h95.288889c-5.485714-49.980952-45.307937-89.803175-95.288889-95.288889v95.288889z" fill="#ACB3BA" p-id="5812"></path><path d="M364.901587 505.904762v95.288889c49.980952-5.485714 89.803175-45.307937 95.288889-95.288889h-95.288889z" fill="#FFD05B" p-id="5813"></path><path d="M340.926984 386.64127c-54.044444 5.892063-96.101587 51.809524-96.101587 107.27619s42.057143 101.384127 96.101587 107.276191V386.64127zM380.952381 285.460317h262.095238v27.631746h-262.095238z" fill="#FF7058" p-id="5814"></path><path d="M444.749206 334.222222H579.047619v27.631746h-134.298413z" fill="#324A5E" p-id="5815"></path></svg>