<?xml version="1.0" standalone="no"?><!DOCTYPE svg PUBLIC "-//W3C//DTD SVG 1.1//EN" "http://www.w3.org/Graphics/SVG/1.1/DTD/svg11.dtd"><svg t="1628567112677" class="icon" viewBox="0 0 1024 1024" version="1.1" xmlns="http://www.w3.org/2000/svg" p-id="4996" xmlns:xlink="http://www.w3.org/1999/xlink" width="200" height="200"><defs><style type="text/css"></style></defs><path d="M512 512m-512 0a512 512 0 1 0 1024 0 512 512 0 1 0-1024 0Z" fill="#FFD05B" p-id="4997"></path><path d="M199.92381 215.974603h526.222222v506.71746h-526.222222z" fill="#324A5E" p-id="4998"></path><path d="M248.48254 332.8h429.307936v341.333333H248.48254zM248.48254 257.422222h57.092063v33.930159h-57.092063z" fill="#FFFFFF" p-id="4999"></path><path d="M388.469841 363.479365h250.717461v33.930159H388.469841z" fill="#54C0EB" p-id="5000"></path><path d="M287.085714 363.479365h58.514286v33.930159h-58.514286zM388.469841 445.561905h250.717461V479.492063H388.469841z" fill="#FFD05B" p-id="5001"></path><path d="M287.085714 445.561905h58.514286V479.492063h-58.514286z" fill="#FF7058" p-id="5002"></path><path d="M388.469841 527.44127h250.717461v33.930159H388.469841z" fill="#ACB3BA" p-id="5003"></path><path d="M287.085714 527.44127h58.514286v33.930159h-58.514286z" fill="#2B3B4E" p-id="5004"></path><path d="M388.469841 609.52381h250.717461v33.930158H388.469841z" fill="#2C9984" p-id="5005"></path><path d="M287.085714 609.52381h58.514286v33.930158h-58.514286z" fill="#4CDBC4" p-id="5006"></path><path d="M342.755556 257.422222h57.092063v33.930159h-57.092063z" fill="#F9B54C" p-id="5007"></path><path d="M437.231746 257.422222h57.092064v33.930159h-57.092064z" fill="#54C0EB" p-id="5008"></path><path d="M839.92381 680.634921v-141.409524c-97.320635-3.453968-140.190476-59.530159-140.190477-59.530159s-42.869841 56.07619-140.190476 59.530159V680.634921s-10.361905 122.71746 140.190476 175.339682c150.552381-52.622222 140.190476-175.339683 140.190477-175.339682z" fill="#FF7058" p-id="5009"></path><path d="M717.003175 655.847619h90.819047v-87.568254c-39.212698-5.892063-69.28254-19.301587-90.819047-32.914286v120.48254z" fill="#F1543F" p-id="5010"></path><path d="M682.463492 655.847619v-120.279365c-21.536508 13.612698-51.606349 27.022222-90.819048 32.914286v87.568254h90.819048v-0.203175z" fill="#E6E9EE" p-id="5011"></path><path d="M682.463492 690.590476h-90.819048c1.015873 21.739683 11.377778 84.520635 90.819048 123.530159v-123.530159z" fill="#F1543F" p-id="5012"></path><path d="M717.003175 690.590476v123.530159c79.644444-39.212698 89.803175-102.196825 90.819047-123.530159h-90.819047z" fill="#E6E9EE" p-id="5013"></path></svg>