<?xml version="1.0" standalone="no"?><!DOCTYPE svg PUBLIC "-//W3C//DTD SVG 1.1//EN" "http://www.w3.org/Graphics/SVG/1.1/DTD/svg11.dtd"><svg t="1628567138928" class="icon" viewBox="0 0 1024 1024" version="1.1" xmlns="http://www.w3.org/2000/svg" p-id="6778" xmlns:xlink="http://www.w3.org/1999/xlink" width="200" height="200"><defs><style type="text/css"></style></defs><path d="M512 512m-512 0a512 512 0 1 0 1024 0 512 512 0 1 0-1024 0Z" fill="#FD8469" p-id="6779"></path><path d="M224.711111 231.619048h574.577778v442.107936H224.711111z" fill="#324A5E" p-id="6780"></path><path d="M256.609524 263.720635h510.577778v377.904762H256.609524z" fill="#E6E9EE" p-id="6781"></path><path d="M826.920635 792.380952H197.079365c-2.844444 0-5.079365-2.234921-5.079365-5.079365v-60.952381h640v60.952381c0 2.844444-2.234921 5.079365-5.079365 5.079365z" fill="#324A5E" p-id="6782"></path><path d="M455.92381 744.838095h111.949206v13.003175h-111.949206z" fill="#FFD05B" p-id="6783"></path><path d="M301.511111 304.355556h190.984127v45.714285h-190.984127z" fill="#ACB3BA" p-id="6784"></path><path d="M531.504762 304.355556h190.984127v45.714285h-190.984127z" fill="#54C0EB" p-id="6785"></path><path d="M301.511111 367.136508h420.977778v45.714286H301.511111z" fill="#FF7058" p-id="6786"></path><path d="M596.72381 429.714286h125.765079V475.428571h-125.765079z" fill="#F9B54C" p-id="6787"></path><path d="M301.511111 429.714286h125.765079V475.428571h-125.765079z" fill="#CED5E0" p-id="6788"></path><path d="M449.015873 429.714286h125.765079V475.428571H449.015873z" fill="#4CDBC4" p-id="6789"></path><path d="M301.511111 492.495238h190.984127v45.714286h-190.984127z" fill="#FF7058" p-id="6790"></path><path d="M531.504762 492.495238h190.984127v45.714286h-190.984127z" fill="#84DBFF" p-id="6791"></path><path d="M301.511111 555.27619h420.977778v45.714286H301.511111z" fill="#2C9984" p-id="6792"></path></svg>