<?xml version="1.0" standalone="no"?><!DOCTYPE svg PUBLIC "-//W3C//DTD SVG 1.1//EN" "http://www.w3.org/Graphics/SVG/1.1/DTD/svg11.dtd"><svg t="1628567117844" class="icon" viewBox="0 0 1024 1024" version="1.1" xmlns="http://www.w3.org/2000/svg" p-id="5329" xmlns:xlink="http://www.w3.org/1999/xlink" width="200" height="200"><defs><style type="text/css"></style></defs><path d="M512 512m-512 0a512 512 0 1 0 1024 0 512 512 0 1 0-1024 0Z" fill="#90DFAA" p-id="5330"></path><path d="M598.95873 192H265.549206c-20.31746 0-36.774603 16.457143-36.774603 36.774603v100.16508c0 20.31746 16.457143 36.774603 36.774603 36.774603h333.409524c20.31746 0 36.774603-16.457143 36.774603-36.774603v-100.16508c0.203175-20.31746-16.253968-36.774603-36.774603-36.774603z" fill="#F1543F" p-id="5331"></path><path d="M487.822222 557.511111h-39.009524c0-55.873016 45.307937-101.180952 101.180953-101.180952h127.390476c43.68254 0 79.034921-35.352381 79.034921-79.034921s-35.352381-79.034921-79.034921-79.034921H635.936508v-39.009523h41.447619c65.219048 0 118.044444 52.825397 118.044444 118.044444s-52.825397 118.044444-118.044444 118.044445h-127.390476c-34.336508 0-62.171429 27.834921-62.171429 62.171428z" fill="#324A5E" p-id="5332"></path><path d="M514.234921 832H422.603175c-6.704762 0-11.987302-5.485714-11.987302-11.987302V557.511111h115.809524v262.501587c-0.203175 6.501587-5.688889 11.987302-12.190476 11.987302z" fill="#2B3B4E" p-id="5333"></path><path d="M285.257143 415.695238c0 8.736508 7.111111 15.847619 15.847619 15.847619s15.847619-7.111111 15.847619-15.847619V365.714286h-31.898413v49.980952h0.203175zM346.209524 365.714286v42.869841c0 7.720635 6.298413 14.222222 14.222222 14.222222 7.720635 0 14.222222-6.298413 14.222222-14.222222V365.714286h-28.444444z" fill="#F1543F" p-id="5334"></path><path d="M448.812698 596.72381c-7.720635 0-14.222222 6.298413-14.222222 14.222222v167.822222c0 7.720635 6.298413 14.222222 14.222222 14.222222 7.720635 0 14.222222-6.298413 14.222223-14.222222v-167.822222c0-7.92381-6.501587-14.222222-14.222223-14.222222z" fill="#324A5E" p-id="5335"></path></svg>