<?xml version="1.0" standalone="no"?><!DOCTYPE svg PUBLIC "-//W3C//DTD SVG 1.1//EN" "http://www.w3.org/Graphics/SVG/1.1/DTD/svg11.dtd"><svg t="1628567136996" class="icon" viewBox="0 0 1024 1024" version="1.1" xmlns="http://www.w3.org/2000/svg" p-id="6621" xmlns:xlink="http://www.w3.org/1999/xlink" width="200" height="200"><defs><style type="text/css"></style></defs><path d="M512 512m-512 0a512 512 0 1 0 1024 0 512 512 0 1 0-1024 0Z" fill="#324A5E" p-id="6622"></path><path d="M832.079238 704.796444L704.792381 832.08127 192.058921 319.349841l127.284825-127.286857z" fill="#FFD05B" p-id="6623"></path><path d="M292.402794 321.265778l-49.133715 49.133714-24.998603-24.996571 49.133714-49.133715zM367.707429 354.738794l-70.107429 70.107428-24.998603-24.996571 70.10946-70.109461zM401.188571 430.230349l-49.131682 49.133714-24.998603-24.996571 49.133714-49.133714zM476.633397 463.559111l-70.10946 70.10946-24.996572-24.998603 70.107429-70.107428zM509.992635 538.906413l-49.133714 49.133714-24.998604-24.998603 49.133715-49.133714zM585.43746 572.525714l-70.10946 70.107429-24.996571-24.998603 70.107428-70.107429zM618.774349 647.870984l-49.133714 49.133714-24.998603-24.996571 49.133714-49.133714zM694.217143 681.199746l-70.107429 70.107429-24.998603-24.996572 70.10946-70.10946zM727.720635 756.691302l-49.133714 49.133714-24.998604-24.996572 49.133715-49.133714z" fill="#F9B54C" p-id="6624"></path><path d="M628.419048 400.253968c-32.507937-32.507937-85.739683-30.069841-114.996826 5.28254l-288.507936 347.428571c-11.987302 14.425397-10.971429 35.352381 2.23492 48.558731s34.133333 14.222222 48.558731 2.23492l347.428571-288.507936c35.149206-29.257143 37.587302-82.692063 5.28254-114.996826z" fill="#54C0EB" p-id="6625"></path><path d="M745.244444 400.253968c-32.304762 32.304762-84.520635 32.304762-116.825396 0s-32.304762-84.520635 0-116.825397 201.549206-98.336508 176.761904-59.936508c-52.419048 80.863492-27.834921 144.457143-59.936508 176.761905z" fill="#F1543F" p-id="6626"></path></svg>